<?xml version="1.0" encoding="UTF-8"?>
<svg width="44px" height="16px" viewBox="0 0 44 16" version="1.1" xmlns="http://www.w3.org/2000/svg" xmlns:xlink="http://www.w3.org/1999/xlink">
    <!-- Generator: Sketch 48.2 (47327) - http://www.bohemiancoding.com/sketch -->
    <title>mailto_icon</title>
    <desc>Created with Sketch.</desc>
    <defs></defs>
    <g id="Page-1" stroke="none" stroke-width="1" fill="none" fill-rule="evenodd">
        <g id="mailto_icon" fill-rule="nonzero">
            <path d="M20,2.8 L17.5,15.6 L41.5,15.6 L44,2.8 L20,2.8 Z M39.7,12.2 L20.7,12.2 L21.1,10.2 L40.2,10.2 L39.7,12.2 Z M40.3,8 L21.4,8 L21.8,6 L40.7,6 L40.3,8 Z" id="Shape" fill="#000000"></path>
            <g id="Group" transform="translate(15.000000, 0.000000)">
                <polygon id="Shape" fill="#FFFFFF" points="25 13.6 0.8 13.6 3.1 0.8 27.3 0.8"></polygon>
                <path d="M25.4,14.1 L0.2,14.1 L2.7,0.3 L27.9,0.3 L25.4,14.1 Z M1.4,13.1 L24.6,13.1 L26.7,1.3 L3.5,1.3 L1.4,13.1 Z" id="Shape" fill="#000000"></path>
            </g>
            <polygon id="Shape" fill="#000000" points="28.1 9.8 17.8 1.2 18.4 0.5 28.2 8.6 42 0.4 42.6 1.3"></polygon>
            <path d="M14.8,3.3 L3.7,3.3 C3.4,3.3 3.2,3.1 3.2,2.8 C3.2,2.5 3.4,2.3 3.7,2.3 L14.9,2.3 C15.2,2.3 15.4,2.5 15.4,2.8 C15.4,3.1 15.1,3.3 14.8,3.3 Z" id="Shape" fill="#000000"></path>
            <path d="M14.3,7.1 L3.2,7.1 C2.9,7.1 2.7,6.9 2.7,6.6 C2.7,6.3 2.9,6.1 3.2,6.1 L14.4,6.1 C14.7,6.1 14.9,6.3 14.9,6.6 C14.9,6.9 14.6,7.1 14.3,7.1 Z" id="Shape" fill="#000000"></path>
            <path d="M13.5,10.9 L2.3,10.9 C2,10.9 1.8,10.7 1.8,10.4 C1.8,10.1 2,9.9 2.3,9.9 L13.5,9.9 C13.8,9.9 14,10.1 14,10.4 C14,10.7 13.8,10.9 13.5,10.9 Z" id="Shape" fill="#000000"></path>
            <path d="M12.4,15 L1.2,15 C0.9,15 0.7,14.8 0.7,14.5 C0.7,14.2 1,14 1.2,14 L12.4,14 C12.7,14 12.9,14.2 12.9,14.5 C12.9,14.8 12.7,15 12.4,15 Z" id="Shape" fill="#000000"></path>
        </g>
    </g>
</svg>