<?xml version="1.0" encoding="utf-8"?>
<!-- Generator: Adobe Illustrator 21.1.0, SVG Export Plug-In . SVG Version: 6.00 Build 0)  -->
<svg version="1.1" id="Layer_1" xmlns="http://www.w3.org/2000/svg" xmlns:xlink="http://www.w3.org/1999/xlink" x="0px" y="0px"
	 viewBox="0 0 565.4 152.6" style="enable-background:new 0 0 565.4 152.6;" xml:space="preserve">
<style type="text/css">
	.st0{fill:#010101;}
	.st1{fill:#FFFFFF;}
</style>
<g>
	<path class="st0" d="M63.6,107c-0.4-0.4-0.6-1-0.6-1.5c0-0.7,0.2-1.1,0.6-1.5l34.8-37.6L80.6,30.7c-0.2-0.4-0.4-0.8-0.4-1.2
		c0-0.7,0.2-1.1,0.7-1.6c0.4-0.4,1.1-0.7,1.8-0.7H88c1.1,0,1.9,0.2,2.4,0.5c0.4,0.3,0.7,0.8,1,1.5l14.8,29.3l26.7-29.3
		c0.5-0.7,1.1-1.1,1.6-1.5c0.5-0.3,1.4-0.5,2.5-0.5h5.9c0.6,0,1.1,0.2,1.5,0.7c0.4,0.4,0.7,0.9,0.7,1.5c0,0.7-0.2,1.2-0.7,1.5
		l-33.4,37.2l18.5,36.2c0.2,0.4,0.2,0.8,0.2,1c0,0.7-0.2,1.2-0.7,1.7c-0.4,0.5-1.1,0.7-1.8,0.7H122c-1.1,0-1.9-0.2-2.3-0.6
		c-0.4-0.3-0.7-0.7-1.1-1.3L103.4,76l-27.9,29.9c-0.1,0.1-0.3,0.3-0.7,0.7c-0.3,0.3-0.7,0.7-1.3,0.9c-0.6,0.2-1.2,0.3-2,0.3h-6.4
		C64.6,107.8,64.1,107.5,63.6,107z"/>
	<path class="st0" d="M180.1,102.5c-4.6-4.3-6.9-10.1-6.9-17.6c0-2.3,0.2-4.7,0.7-7.3c1-5.5,2.4-12.3,4.4-20.5
		c2.4-9.7,6.8-17.4,13-22.9c6.2-5.5,14.3-8.2,24.5-8.2c6.2,0,11.3,0.9,15.5,2.9c4.2,1.9,7.3,4.5,9.4,7.7c2.1,3.3,3.1,6.9,3.1,10.9
		c0,1.4-0.1,2.8-0.3,4.1c-0.2,1.5-1,2.4-2.3,2.4H235c-1.9,0-2.7-0.9-2.6-2.5c0.1-0.6,0.1-1.3,0.1-2.2c0-9.2-5.7-13.9-17.1-13.9
		c-6.5,0-12.1,1.9-16.6,5.5c-4.5,3.7-7.7,9.3-9.5,16.9c-1.6,6.4-3,12.8-4.2,19.3c-0.4,2.5-0.7,4.9-0.7,7c0,10.2,5.4,15.2,16.2,15.2
		c5.8,0,10.8-1.2,14.9-3.6c4.1-2.4,7.4-6.4,9.9-12.3c0.4-0.9,0.8-1.5,1.3-2c0.5-0.4,1.1-0.6,1.9-0.6h6.1c0.7,0,1.2,0.2,1.6,0.7
		c0.4,0.4,0.5,1,0.2,1.6c-2.1,7.3-6,13.4-11.9,18.3c-5.9,4.9-14,7.3-24.5,7.3C191.4,108.9,184.7,106.8,180.1,102.5z"/>
	<path class="st0" d="M246.1,107c-0.4-0.5-0.6-1.1-0.4-1.9L262,28.7c0.2-0.7,0.5-1.4,1.1-1.9c0.6-0.5,1.2-0.7,2-0.7h5.1
		c0.7,0,1.4,0.2,1.8,0.7c0.4,0.5,0.6,1.1,0.4,1.9L256,105.1c-0.2,0.7-0.5,1.4-1.1,1.9c-0.6,0.5-1.2,0.7-2,0.7h-5.1
		C247.1,107.8,246.5,107.5,246.1,107z"/>
	<path class="st0" d="M280.6,103.3c-4-3.7-5.9-8.6-5.9-14.8c0-1.6,0.2-3.5,0.6-5.7c0.4-3,1.1-6.4,2-9.9c2-8,5.7-14.3,11-19
		c5.4-4.7,12.2-7.1,20.7-7.1c7.2,0,12.7,1.9,16.6,5.6c3.9,3.7,5.9,8.8,5.9,15.1c0,2-0.2,3.7-0.4,5.4c-0.7,3.7-1.5,7.1-2.2,9.9
		c-2,8.1-5.7,14.3-11,19.1c-5.3,4.7-12.2,7.1-20.6,7.1C290.1,108.9,284.5,107,280.6,103.3z"/>
	<path class="st0" d="M340.7,101.2c-1.5-2-2.2-3.9-2.2-5.5c0-1,0.3-1.7,1-2.4c0.7-0.6,1.4-0.9,2-0.9h4.8c0.5,0,0.9,0.1,1.1,0.2
		c0.2,0.2,0.5,0.5,0.7,1.1c1.5,2.2,3.1,3.9,5,5.1c1.9,1.1,4.7,1.7,8.4,1.7c4.2,0,7.6-0.7,10.4-2.3c2.9-1.5,4.6-3.7,5.2-6.7
		c0.2-0.9,0.2-1.5,0.2-1.7c0-2.1-1.1-3.8-3.5-5c-2.3-1.2-6.5-2.5-12.6-4c-5.4-1.3-9.2-3-11.6-5.2c-2.4-2.1-3.5-4.7-3.5-7.9
		c0-0.7,0.2-2,0.5-3.9c0.6-2.9,2-5.7,4.3-8.3c2.2-2.6,5.2-4.7,8.9-6.4c3.7-1.6,7.8-2.4,12.5-2.4c4.7,0,8.6,0.7,11.7,2.4
		c3,1.5,5.2,3.4,6.5,5.5c1.3,2.1,1.8,3.9,1.5,5.4c-0.1,0.7-0.4,1.4-1,1.9s-1.2,0.7-2,0.7h-4.5c-1,0-1.6-0.4-2-1.2
		c-1.1-1.5-2-2.7-2.7-3.4c-0.7-0.8-1.8-1.5-3.3-2c-1.5-0.6-3.6-0.9-6.1-0.9c-3.7,0-6.8,0.8-9.1,2.4c-2.4,1.6-3.8,3.7-4.4,6.3
		c-0.2,0.8-0.2,1.4-0.2,1.7c0,1.9,1.1,3.4,3.2,4.6c2.1,1.2,6,2.4,11.7,3.7c5.9,1.4,10.2,3.2,12.8,5.5c2.6,2.3,3.9,5.1,3.9,8.5
		c0,1.1-0.2,2.3-0.4,3.6c-1.1,5.1-4.1,9.3-9.1,12.6c-5,3.3-11.4,5-19.2,5c-4.9,0-9-0.7-12.1-2.3
		C344.4,105.1,342.1,103.3,340.7,101.2z"/>
	<path class="st0" d="M405.3,103.3c-3.7-3.7-5.5-8.9-5.5-15.6c0-2.1,0.2-4.2,0.5-6.1c0.3-2.3,0.9-4.8,1.5-7.7
		c2.4-8.3,6.4-14.9,12.1-19.8c5.7-4.9,12.5-7.3,20.3-7.3c6.9,0,12.1,1.8,15.8,5.5c3.7,3.7,5.5,8.9,5.5,15.5c0,2.7-0.3,5.7-1.1,9
		l-0.4,2c-0.2,0.8-0.6,1.4-1.2,1.9c-0.7,0.6-1.4,0.8-2.1,0.8h-39.9l-0.2,1c-0.2,1.4-0.4,2.8-0.4,4.2c0,4,1.1,7.3,3.3,9.9
		c2.1,2.7,5.2,4,9.2,4c3.6,0,6.7-0.7,9.3-2.1c2.6-1.4,4.6-2.9,6-4.5c0.8-0.9,1.5-1.5,1.9-1.6c0.4-0.2,1.1-0.2,2-0.2h5.1
		c0.7,0,1.2,0.2,1.6,0.6c0.4,0.4,0.5,1,0.3,1.7c-0.5,1.6-2,3.7-4.6,6c-2.6,2.4-6,4.3-10.1,6c-4.1,1.7-8.6,2.5-13.4,2.5
		C414.2,108.9,409,107,405.3,103.3z"/>
	<polygon class="st0" points="560.9,21.9 547.2,148.5 23.3,148.5 25,134.5 26,126.3 524.5,126.3 535.3,26 535.8,21.9 	"/>
	<path class="st0" d="M536.2,17.9l-0.4,4.1l-0.5,4.1h20.9l-12.8,118.4H28l1.2-9.9l1-8.2h-8.2l-1,8.2l-2.2,18.1h532.1l14.6-134.7
		H536.2z"/>
</g>
<g>
	<path class="st1" d="M144.5,27.9c0.4,0.4,0.7,0.9,0.7,1.5c0,0.7-0.2,1.2-0.7,1.5l-33.4,37.2l18.5,36.2c0.2,0.4,0.2,0.8,0.2,1
		c0,0.7-0.2,1.2-0.7,1.7c-0.4,0.5-1.1,0.7-1.8,0.7H122c-1.1,0-1.9-0.2-2.3-0.6c-0.4-0.3-0.7-0.7-1.1-1.3L103.4,76l-27.9,29.9
		c-0.1,0.1-0.3,0.3-0.7,0.7c-0.3,0.3-0.7,0.7-1.3,0.9c-0.6,0.2-1.2,0.3-2,0.3h-6.4c-0.6,0-1.1-0.2-1.5-0.7c-0.4-0.4-0.6-1-0.6-1.5
		c0-0.7,0.2-1.1,0.6-1.5l34.8-37.6L80.6,30.7c-0.2-0.4-0.4-0.8-0.4-1.2c0-0.7,0.2-1.1,0.7-1.6c0.4-0.4,1.1-0.7,1.8-0.7H88
		c1.1,0,1.9,0.2,2.4,0.5c0.4,0.3,0.7,0.8,1,1.5l14.8,29.3l26.7-29.3c0.5-0.7,1.1-1.1,1.6-1.5c0.5-0.3,1.4-0.5,2.5-0.5h5.9
		C143.5,27.2,144.1,27.4,144.5,27.9z"/>
	<path class="st1" d="M240.6,36.7c2.1,3.3,3.1,6.9,3.1,10.9c0,1.4-0.1,2.8-0.3,4.1c-0.2,1.5-1,2.4-2.3,2.4H235
		c-1.9,0-2.7-0.9-2.6-2.5c0.1-0.6,0.1-1.3,0.1-2.2c0-9.2-5.7-13.9-17.1-13.9c-6.5,0-12.1,1.9-16.6,5.5c-4.5,3.7-7.7,9.3-9.5,16.9
		c-1.6,6.4-3,12.8-4.2,19.3c-0.4,2.5-0.7,4.9-0.7,7c0,10.2,5.4,15.2,16.2,15.2c5.8,0,10.8-1.2,14.9-3.6c4.1-2.4,7.4-6.4,9.9-12.3
		c0.4-0.9,0.8-1.5,1.3-2c0.5-0.4,1.1-0.6,1.9-0.6h6.1c0.7,0,1.2,0.2,1.6,0.7c0.4,0.4,0.5,1,0.2,1.6c-2.1,7.3-6,13.4-11.9,18.3
		c-5.9,4.9-14,7.3-24.5,7.3c-8.9,0-15.6-2.1-20.1-6.4c-4.6-4.3-6.9-10.1-6.9-17.6c0-2.3,0.2-4.7,0.7-7.3c1-5.5,2.4-12.3,4.4-20.5
		c2.4-9.7,6.8-17.4,13-22.9c6.2-5.5,14.3-8.2,24.5-8.2c6.2,0,11.3,0.9,15.5,2.9C235.4,30.8,238.6,33.4,240.6,36.7z"/>
	<path class="st1" d="M272,26.8c0.4,0.5,0.6,1.1,0.4,1.9L256,105.1c-0.2,0.7-0.5,1.4-1.1,1.9c-0.6,0.5-1.2,0.7-2,0.7h-5.1
		c-0.7,0-1.4-0.2-1.8-0.7c-0.4-0.5-0.6-1.1-0.4-1.9L262,28.7c0.2-0.7,0.5-1.4,1.1-1.9c0.6-0.5,1.2-0.7,2-0.7h5.1
		C270.9,26.1,271.6,26.3,272,26.8z"/>
	<path class="st1" d="M325.6,52.4c3.9,3.7,5.9,8.8,5.9,15.1c0,2-0.2,3.7-0.4,5.4c-0.7,3.7-1.5,7.1-2.2,9.9c-2,8.1-5.7,14.3-11,19.1
		c-5.3,4.7-12.2,7.1-20.6,7.1c-7.2,0-12.7-1.9-16.6-5.6c-4-3.7-5.9-8.6-5.9-14.8c0-1.6,0.2-3.5,0.6-5.7c0.4-3,1.1-6.4,2-9.9
		c2-8,5.7-14.3,11-19c5.4-4.7,12.2-7.1,20.7-7.1C316.2,46.8,321.7,48.7,325.6,52.4z"/>
	<path class="st1" d="M390.7,54.6c1.3,2.1,1.8,3.9,1.5,5.4c-0.1,0.7-0.4,1.4-1,1.9s-1.2,0.7-2,0.7h-4.5c-1,0-1.6-0.4-2-1.2
		c-1.1-1.5-2-2.7-2.7-3.4c-0.7-0.8-1.8-1.5-3.3-2c-1.5-0.6-3.6-0.9-6.1-0.9c-3.7,0-6.8,0.8-9.1,2.4c-2.4,1.6-3.8,3.7-4.4,6.3
		c-0.2,0.8-0.2,1.4-0.2,1.7c0,1.9,1.1,3.4,3.2,4.6c2.1,1.2,6,2.4,11.7,3.7c5.9,1.4,10.2,3.2,12.8,5.5c2.6,2.3,3.9,5.1,3.9,8.5
		c0,1.1-0.2,2.3-0.4,3.6c-1.1,5.1-4.1,9.3-9.1,12.6c-5,3.3-11.4,5-19.2,5c-4.9,0-9-0.7-12.1-2.3c-3.2-1.5-5.5-3.3-6.8-5.4
		c-1.5-2-2.2-3.9-2.2-5.5c0-1,0.3-1.7,1-2.4c0.7-0.6,1.4-0.9,2-0.9h4.8c0.5,0,0.9,0.1,1.1,0.2c0.2,0.2,0.5,0.5,0.7,1.1
		c1.5,2.2,3.1,3.9,5,5.1c1.9,1.1,4.7,1.7,8.4,1.7c4.2,0,7.6-0.7,10.4-2.3c2.9-1.5,4.6-3.7,5.2-6.7c0.2-0.9,0.2-1.5,0.2-1.7
		c0-2.1-1.1-3.8-3.5-5c-2.3-1.2-6.5-2.5-12.6-4c-5.4-1.3-9.2-3-11.6-5.2c-2.4-2.1-3.5-4.7-3.5-7.9c0-0.7,0.2-2,0.5-3.9
		c0.6-2.9,2-5.7,4.3-8.3c2.2-2.6,5.2-4.7,8.9-6.4c3.7-1.6,7.8-2.4,12.5-2.4c4.7,0,8.6,0.7,11.7,2.4
		C387.2,50.7,389.4,52.6,390.7,54.6z"/>
	<path class="st1" d="M450.1,52.2c3.7,3.7,5.5,8.9,5.5,15.5c0,2.7-0.3,5.7-1.1,9l-0.4,2c-0.2,0.8-0.6,1.4-1.2,1.9
		c-0.7,0.6-1.4,0.8-2.1,0.8h-39.9l-0.2,1c-0.2,1.4-0.4,2.8-0.4,4.2c0,4,1.1,7.3,3.3,9.9c2.1,2.7,5.2,4,9.2,4c3.6,0,6.7-0.7,9.3-2.1
		c2.6-1.4,4.6-2.9,6-4.5c0.8-0.9,1.5-1.5,1.9-1.6c0.4-0.2,1.1-0.2,2-0.2h5.1c0.7,0,1.2,0.2,1.6,0.6c0.4,0.4,0.5,1,0.3,1.7
		c-0.5,1.6-2,3.7-4.6,6c-2.6,2.4-6,4.3-10.1,6c-4.1,1.7-8.6,2.5-13.4,2.5c-6.8,0-12.1-1.9-15.7-5.6c-3.7-3.7-5.5-8.9-5.5-15.6
		c0-2.1,0.2-4.2,0.5-6.1c0.3-2.3,0.9-4.8,1.5-7.7c2.4-8.3,6.4-14.9,12.1-19.8c5.7-4.9,12.5-7.3,20.3-7.3
		C441.2,46.8,446.4,48.6,450.1,52.2z"/>
	<path class="st1" d="M20.1,4.1L4.6,130.4h523.6L539.5,26l0.4-4.1l0.5-4.1l1.5-13.8H20.1z M535.8,21.9l-0.5,4.1l-10.8,100.3H9.1
		L23.6,8.2h513.7l-1.1,9.7L535.8,21.9z"/>
	<path class="st0" d="M16.4,0L0,134.5h531.8L543.6,26l0.8-8.2l2-17.9H16.4z M536.2,17.9l-0.4,4.1l-0.5,4.1l-10.8,100.3H9.1L23.6,8.2
		h513.7L536.2,17.9z"/>
	<path class="st1" d="M23.6,8.2L9.1,126.3h515.4L535.3,26l0.5-4.1l0.4-4.1l1.1-9.7H23.6z M144.5,31l-33.4,37.2l18.5,36.2
		c0.2,0.4,0.2,0.8,0.2,1c0,0.7-0.2,1.2-0.7,1.7c-0.4,0.5-1.1,0.7-1.8,0.7H122c-1.1,0-1.9-0.2-2.3-0.6c-0.4-0.3-0.7-0.7-1.1-1.3
		L103.4,76l-27.9,29.9c-0.1,0.1-0.3,0.3-0.7,0.7c-0.3,0.3-0.7,0.7-1.3,0.9c-0.6,0.2-1.2,0.3-2,0.3h-6.4c-0.6,0-1.1-0.2-1.5-0.7
		c-0.4-0.4-0.6-1-0.6-1.5c0-0.7,0.2-1.1,0.6-1.5l34.8-37.6L80.6,30.7c-0.2-0.4-0.4-0.8-0.4-1.2c0-0.7,0.2-1.1,0.7-1.6
		c0.4-0.4,1.1-0.7,1.8-0.7H88c1.1,0,1.9,0.2,2.4,0.5c0.4,0.3,0.7,0.8,1,1.5l14.8,29.3l26.7-29.3c0.5-0.7,1.1-1.1,1.6-1.5
		c0.5-0.3,1.4-0.5,2.5-0.5h5.9c0.6,0,1.1,0.2,1.5,0.7c0.4,0.4,0.7,0.9,0.7,1.5C145.2,30.1,144.9,30.6,144.5,31z M243.4,51.7
		c-0.2,1.5-1,2.4-2.3,2.4H235c-1.9,0-2.7-0.9-2.6-2.5c0.1-0.6,0.1-1.3,0.1-2.2c0-9.2-5.7-13.9-17.1-13.9c-6.5,0-12.1,1.9-16.6,5.5
		c-4.5,3.7-7.7,9.3-9.5,16.9c-1.6,6.4-3,12.8-4.2,19.3c-0.4,2.5-0.7,4.9-0.7,7c0,10.2,5.4,15.2,16.2,15.2c5.8,0,10.8-1.2,14.9-3.6
		c4.1-2.4,7.4-6.4,9.9-12.3c0.4-0.9,0.8-1.5,1.3-2c0.5-0.4,1.1-0.6,1.9-0.6h6.1c0.7,0,1.2,0.2,1.6,0.7c0.4,0.4,0.5,1,0.2,1.6
		c-2.1,7.3-6,13.4-11.9,18.3c-5.9,4.9-14,7.3-24.5,7.3c-8.9,0-15.6-2.1-20.1-6.4c-4.6-4.3-6.9-10.1-6.9-17.6c0-2.3,0.2-4.7,0.7-7.3
		c1-5.5,2.4-12.3,4.4-20.5c2.4-9.7,6.8-17.4,13-22.9c6.2-5.5,14.3-8.2,24.5-8.2c6.2,0,11.3,0.9,15.5,2.9c4.2,1.9,7.3,4.5,9.4,7.7
		c2.1,3.3,3.1,6.9,3.1,10.9C243.7,49,243.6,50.4,243.4,51.7z M272.4,28.7L256,105.1c-0.2,0.7-0.5,1.4-1.1,1.9
		c-0.6,0.5-1.2,0.7-2,0.7h-5.1c-0.7,0-1.4-0.2-1.8-0.7c-0.4-0.5-0.6-1.1-0.4-1.9L262,28.7c0.2-0.7,0.5-1.4,1.1-1.9
		c0.6-0.5,1.2-0.7,2-0.7h5.1c0.7,0,1.4,0.2,1.8,0.7C272.4,27.3,272.6,28,272.4,28.7z M331.1,72.9c-0.7,3.7-1.5,7.1-2.2,9.9
		c-2,8.1-5.7,14.3-11,19.1c-5.3,4.7-12.2,7.1-20.6,7.1c-7.2,0-12.7-1.9-16.6-5.6c-4-3.7-5.9-8.6-5.9-14.8c0-1.6,0.2-3.5,0.6-5.7
		c0.4-3,1.1-6.4,2-9.9c2-8,5.7-14.3,11-19c5.4-4.7,12.2-7.1,20.7-7.1c7.2,0,12.7,1.9,16.6,5.6c3.9,3.7,5.9,8.8,5.9,15.1
		C331.5,69.4,331.3,71.2,331.1,72.9z M391.2,61.9c-0.6,0.5-1.2,0.7-2,0.7h-4.5c-1,0-1.6-0.4-2-1.2c-1.1-1.5-2-2.7-2.7-3.4
		c-0.7-0.8-1.8-1.5-3.3-2c-1.5-0.6-3.6-0.9-6.1-0.9c-3.7,0-6.8,0.8-9.1,2.4c-2.4,1.6-3.8,3.7-4.4,6.3c-0.2,0.8-0.2,1.4-0.2,1.7
		c0,1.9,1.1,3.4,3.2,4.6c2.1,1.2,6,2.4,11.7,3.7c5.9,1.4,10.2,3.2,12.8,5.5c2.6,2.3,3.9,5.1,3.9,8.5c0,1.1-0.2,2.3-0.4,3.6
		c-1.1,5.1-4.1,9.3-9.1,12.6c-5,3.3-11.4,5-19.2,5c-4.9,0-9-0.7-12.1-2.3c-3.2-1.5-5.5-3.3-6.8-5.4c-1.5-2-2.2-3.9-2.2-5.5
		c0-1,0.3-1.7,1-2.4c0.7-0.6,1.4-0.9,2-0.9h4.8c0.5,0,0.9,0.1,1.1,0.2c0.2,0.2,0.5,0.5,0.7,1.1c1.5,2.2,3.1,3.9,5,5.1
		c1.9,1.1,4.7,1.7,8.4,1.7c4.2,0,7.6-0.7,10.4-2.3c2.9-1.5,4.6-3.7,5.2-6.7c0.2-0.9,0.2-1.5,0.2-1.7c0-2.1-1.1-3.8-3.5-5
		c-2.3-1.2-6.5-2.5-12.6-4c-5.4-1.3-9.2-3-11.6-5.2c-2.4-2.1-3.5-4.7-3.5-7.9c0-0.7,0.2-2,0.5-3.9c0.6-2.9,2-5.7,4.3-8.3
		c2.2-2.6,5.2-4.7,8.9-6.4c3.7-1.6,7.8-2.4,12.5-2.4c4.7,0,8.6,0.7,11.7,2.4c3,1.5,5.2,3.4,6.5,5.5c1.3,2.1,1.8,3.9,1.5,5.4
		C392.1,60.7,391.7,61.4,391.2,61.9z M454.5,76.7l-0.4,2c-0.2,0.8-0.6,1.4-1.2,1.9c-0.7,0.6-1.4,0.8-2.1,0.8h-39.9l-0.2,1
		c-0.2,1.4-0.4,2.8-0.4,4.2c0,4,1.1,7.3,3.3,9.9c2.1,2.7,5.2,4,9.2,4c3.6,0,6.7-0.7,9.3-2.1c2.6-1.4,4.6-2.9,6-4.5
		c0.8-0.9,1.5-1.5,1.9-1.6c0.4-0.2,1.1-0.2,2-0.2h5.1c0.7,0,1.2,0.2,1.6,0.6c0.4,0.4,0.5,1,0.3,1.7c-0.5,1.6-2,3.7-4.6,6
		c-2.6,2.4-6,4.3-10.1,6c-4.1,1.7-8.6,2.5-13.4,2.5c-6.8,0-12.1-1.9-15.7-5.6c-3.7-3.7-5.5-8.9-5.5-15.6c0-2.1,0.2-4.2,0.5-6.1
		c0.3-2.3,0.9-4.8,1.5-7.7c2.4-8.3,6.4-14.9,12.1-19.8c5.7-4.9,12.5-7.3,20.3-7.3c6.9,0,12.1,1.8,15.8,5.5c3.7,3.7,5.5,8.9,5.5,15.5
		C455.5,70.4,455.2,73.4,454.5,76.7z"/>
</g>
<g>
	<path class="st0" d="M145.2,29.4c0-0.7-0.2-1.1-0.7-1.5c-0.4-0.5-1-0.7-1.5-0.7h-5.9c-1.1,0-2,0.2-2.5,0.5
		c-0.6,0.3-1.1,0.8-1.6,1.5l-26.7,29.3L91.4,29.2c-0.2-0.7-0.6-1.1-1-1.5c-0.5-0.3-1.3-0.5-2.4-0.5h-5.3c-0.7,0-1.4,0.2-1.8,0.7
		c-0.5,0.5-0.7,1-0.7,1.6c0,0.4,0.2,0.8,0.4,1.2l17.8,35.6l-34.8,37.6c-0.4,0.4-0.6,0.9-0.6,1.5c0,0.6,0.2,1.1,0.6,1.5
		c0.5,0.5,1,0.7,1.5,0.7h6.4c0.7,0,1.4-0.1,2-0.3c0.6-0.2,1-0.6,1.3-0.9c0.4-0.3,0.7-0.6,0.7-0.7L103.4,76l15.3,29.9
		c0.3,0.6,0.7,1,1.1,1.3c0.4,0.4,1.2,0.6,2.3,0.6h5.3c0.7,0,1.4-0.2,1.8-0.7c0.5-0.5,0.7-1.1,0.7-1.7c0-0.2-0.1-0.6-0.2-1
		l-18.5-36.2L144.5,31C144.9,30.6,145.2,30.1,145.2,29.4z"/>
	<path class="st0" d="M240.6,36.7c-2-3.3-5.2-5.9-9.4-7.7c-4.2-2-9.3-2.9-15.5-2.9c-10.2,0-18.3,2.7-24.5,8.2
		c-6.2,5.5-10.5,13.2-13,22.9c-2,8.2-3.4,15-4.4,20.5c-0.4,2.5-0.7,5-0.7,7.3c0,7.5,2.3,13.3,6.9,17.6c4.6,4.2,11.2,6.4,20.1,6.4
		c10.4,0,18.6-2.4,24.5-7.3c5.9-5,9.8-11,11.9-18.3c0.2-0.7,0.2-1.2-0.2-1.6c-0.4-0.4-0.9-0.7-1.6-0.7h-6.1c-0.7,0-1.4,0.2-1.9,0.6
		c-0.5,0.4-0.9,1.1-1.3,2c-2.5,5.9-5.9,9.9-9.9,12.3c-4.2,2.4-9.1,3.6-14.9,3.6c-10.8,0-16.2-5.1-16.2-15.2c0-2.1,0.2-4.5,0.7-7
		c1.1-6.5,2.5-13,4.2-19.3c1.9-7.6,5.1-13.2,9.5-16.9c4.6-3.6,10.1-5.5,16.6-5.5c11.4,0,17.1,4.6,17.1,13.9c0,0.9,0,1.6-0.1,2.2
		c-0.1,1.6,0.7,2.5,2.6,2.5h6.1c1.3,0,2-0.8,2.3-2.4c0.2-1.3,0.3-2.7,0.3-4.1C243.7,43.6,242.7,39.9,240.6,36.7z"/>
	<path class="st0" d="M272,26.8c-0.4-0.5-1.1-0.7-1.8-0.7h-5.1c-0.8,0-1.5,0.2-2,0.7c-0.6,0.5-0.9,1.1-1.1,1.9l-16.4,76.5
		c-0.2,0.7,0,1.4,0.4,1.9c0.4,0.5,1.1,0.7,1.8,0.7h5.1c0.8,0,1.5-0.2,2-0.7c0.6-0.5,0.9-1.1,1.1-1.9l16.4-76.5
		C272.6,28,272.4,27.3,272,26.8z"/>
	<path class="st0" d="M325.6,52.4c-3.9-3.7-9.5-5.6-16.6-5.6c-8.5,0-15.3,2.4-20.7,7.1c-5.3,4.6-9,11-11,19c-1,3.5-1.6,6.8-2,9.9
		c-0.4,2.2-0.6,4.1-0.6,5.7c0,6.2,2,11.2,5.9,14.8c3.9,3.7,9.5,5.6,16.6,5.6c8.4,0,15.3-2.4,20.6-7.1c5.3-4.7,9-11,11-19.1
		c0.7-2.8,1.5-6.1,2.2-9.9c0.2-1.6,0.4-3.4,0.4-5.4C331.5,61.2,329.5,56.2,325.6,52.4z M320.3,73.4c-0.9,4.6-1.5,7.5-1.8,8.7
		c-1.5,5.9-4.1,10.4-7.7,13.4c-3.7,3.1-8.1,4.6-13.1,4.6c-8.2,0-12.3-4.2-12.3-12.6c0-1.9,0.2-3.7,0.5-5.5c0.5-2.9,1.1-5.9,2-8.7
		c1.4-5.7,3.9-10.2,7.7-13.4c3.7-3.1,8.1-4.6,13-4.6c4.1,0,7.2,1.1,9.3,3.2c2.1,2.1,3.2,5.3,3.2,9.5C321,69.5,320.7,71.3,320.3,73.4
		z"/>
	<path class="st0" d="M390.7,54.6c-1.3-2-3.5-3.9-6.5-5.5c-3.1-1.6-7-2.4-11.7-2.4c-4.6,0-8.8,0.8-12.5,2.4
		c-3.7,1.6-6.7,3.7-8.9,6.4c-2.3,2.6-3.7,5.4-4.3,8.3c-0.3,1.9-0.5,3.2-0.5,3.9c0,3.2,1.1,5.8,3.5,7.9c2.4,2.2,6.2,3.9,11.6,5.2
		c6.1,1.5,10.4,2.8,12.6,4c2.4,1.1,3.5,2.9,3.5,5c0,0.2-0.1,0.8-0.2,1.7c-0.7,2.9-2.4,5.1-5.2,6.7c-2.9,1.5-6.3,2.3-10.4,2.3
		c-3.7,0-6.5-0.6-8.4-1.7c-1.9-1.2-3.5-2.9-5-5.1c-0.2-0.6-0.5-0.9-0.7-1.1c-0.2-0.2-0.7-0.2-1.1-0.2h-4.8c-0.7,0-1.4,0.3-2,0.9
		c-0.7,0.7-1,1.4-1,2.4c0,1.6,0.7,3.5,2.2,5.5c1.4,2,3.7,3.8,6.8,5.4c3.2,1.5,7.3,2.3,12.1,2.3c7.7,0,14.2-1.7,19.2-5
		c5.1-3.3,8.1-7.6,9.1-12.6c0.2-1.3,0.4-2.4,0.4-3.6c0-3.3-1.3-6.2-3.9-8.5c-2.6-2.3-6.9-4.1-12.8-5.5c-5.7-1.3-9.5-2.5-11.7-3.7
		c-2.1-1.2-3.2-2.8-3.2-4.6c0-0.3,0.1-0.9,0.2-1.7c0.6-2.6,2-4.6,4.4-6.3c2.4-1.5,5.4-2.4,9.1-2.4c2.5,0,4.6,0.3,6.1,0.9
		c1.5,0.6,2.7,1.2,3.3,2c0.7,0.7,1.5,1.9,2.7,3.4c0.3,0.8,1,1.2,2,1.2h4.5c0.7,0,1.4-0.2,2-0.7s0.9-1.1,1-1.9
		C392.5,58.5,392,56.7,390.7,54.6z"/>
	<path class="st0" d="M450.1,52.2c-3.7-3.7-8.9-5.5-15.8-5.5c-7.8,0-14.6,2.4-20.3,7.3c-5.7,4.9-9.7,11.5-12.1,19.8
		c-0.7,2.9-1.2,5.4-1.5,7.7c-0.3,2-0.5,4-0.5,6.1c0,6.7,1.8,11.9,5.5,15.6c3.7,3.7,8.9,5.6,15.7,5.6c4.8,0,9.3-0.8,13.4-2.5
		c4.1-1.7,7.5-3.7,10.1-6c2.6-2.4,4.1-4.4,4.6-6c0.2-0.7,0.1-1.3-0.3-1.7c-0.4-0.4-0.9-0.6-1.6-0.6H442c-1,0-1.6,0.1-2,0.2
		c-0.4,0.2-1.1,0.7-1.9,1.6c-1.4,1.5-3.4,3.1-6,4.5c-2.6,1.4-5.7,2.1-9.3,2.1c-4,0-7.1-1.3-9.2-4c-2.1-2.6-3.3-6-3.3-9.9
		c0-1.4,0.2-2.8,0.4-4.2l0.2-1h39.9c0.7,0,1.5-0.2,2.1-0.8c0.7-0.5,1.1-1.1,1.2-1.9l0.4-2c0.7-3.3,1.1-6.3,1.1-9
		C455.5,61.1,453.8,56,450.1,52.2z M444.7,73.2l-0.1,0.4h-32v-0.4c1.1-5.3,3.5-9.7,7-13.1c3.6-3.3,7.9-5.1,12.9-5.1
		c4.1,0,7.2,1.2,9.5,3.6c2.2,2.4,3.3,5.5,3.3,9.5C445.4,69.6,445.1,71.3,444.7,73.2z"/>
</g>
</svg>
