<?xml version="1.0" encoding="UTF-8"?>
<svg width="18px" height="275px" viewBox="0 0 18 275" version="1.1" xmlns="http://www.w3.org/2000/svg" xmlns:xlink="http://www.w3.org/1999/xlink">
    <!-- Generator: Sketch 48.2 (47327) - http://www.bohemiancoding.com/sketch -->
    <title>Group 7</title>
    <desc>Created with Sketch.</desc>
    <defs></defs>
    <g id="Main-Projects" stroke="none" stroke-width="1" fill="none" fill-rule="evenodd" transform="translate(-853.000000, -167.000000)">
        <g id="Start" transform="translate(26.000000, 27.000000)" fill="#000105">
            <g id="C_Ctart_panel-2-Copy" transform="translate(1.000000, 0.000000)">
                <g id="Group-7" transform="translate(826.000000, 139.000000)">
                    <g>
                        <text id="Computer_Craphics,-Inc." transform="translate(9.701156, 83.939347) rotate(-270.000000) translate(-9.701156, -83.939347) " font-family=".AppleSystemUIFont" font-size="14.1168" font-weight="normal" letter-spacing="-0.0324000008">
                            <tspan x="-73.7988437" y="88.9393469">Computer_Craphics, Inc.</tspan>
                        </text>
                        <path d="M10.923,270.749 L10.923,268.024 L13.554,268.532 L13.554,271.256 L10.923,270.749 Z M5.203,270.012 L5.203,258.784 L7.834,259.339 L7.834,270.515 L5.203,270.012 Z M13.554,260.253 L13.554,262.977 L10.923,262.469 L10.923,259.745 L13.554,260.253 Z M17.909,257.9 L0.671,254.568 L0.671,272.393 L17.909,275.725 L17.909,257.9 Z" id="Fill-26"></path>
                        <path d="M4.362,189.222 L14.884,192.784 C16.675,193.39 17.835,195.414 17.827,198.13 C17.82,200.686 16.652,201.73 14.996,201.169 L12.107,200.191 L12.116,197.22 L14.757,198.114 C15.339,198.311 15.698,198.113 15.701,197.346 C15.703,196.419 15.301,196.123 14.786,195.949 L4.554,192.486 C3.995,192.296 3.591,192.511 3.589,193.246 C3.586,194.077 4.056,194.492 4.571,194.666 L7.123,195.53 L7.115,198.501 L4.473,197.607 C2.727,197.016 1.432,195.139 1.44,192.487 C1.447,189.643 2.593,188.624 4.362,189.222" id="Fill-48"></path>
                        <polyline id="Fill-49" points="2.776 197.884 2.748 208.076 1.204 207.553 1.231 197.361 2.776 197.884"></polyline>
                        <path d="M4.307,209.127 L14.83,212.689 C16.621,213.295 17.781,215.319 17.773,218.034 C17.766,220.59 16.598,221.634 14.941,221.073 L12.053,220.096 L12.061,217.124 L14.703,218.019 C15.285,218.216 15.644,218.017 15.646,217.251 C15.649,216.324 15.246,216.028 14.732,215.854 L4.5,212.39 C3.94,212.201 3.537,212.416 3.535,213.151 C3.532,213.982 4.002,214.396 4.517,214.571 L7.069,215.435 L7.061,218.406 L4.419,217.512 C2.673,216.921 1.378,215.043 1.385,212.391 C1.393,209.548 2.539,208.528 4.307,209.127" id="Fill-50"></path>
                        <path d="M3.7,234.76 L15.588,238.784 C16.282,239.019 16.865,238.769 16.869,237.491 C16.872,236.117 16.179,235.498 15.642,235.317 L3.665,231.262 C3.082,231.065 2.208,231.153 2.205,232.527 C2.2,234.125 3.14,234.571 3.7,234.76 Z M1.641,233.871 C1.485,233.371 1.397,232.765 1.399,232.158 C1.404,230.145 2.28,229.482 3.825,230.005 L15.467,233.946 C16.989,234.461 17.702,236.11 17.697,237.835 C17.692,239.496 17.04,240.587 15.629,240.109 L3.786,236.101 C3.114,235.873 2.6,235.475 2.22,234.995 L1.051,236.294 L0.382,235.14 L1.641,233.871 Z" id="Fill-51"></path>
                        <path d="M3.49,237.919 L15.378,241.943 C16.698,242.39 17.726,243.633 17.72,245.806 C17.714,247.946 16.615,248.342 15.608,248.001 L12.854,247.069 L12.857,245.887 L15.409,246.751 C16.35,247.069 16.888,246.739 16.892,245.525 C16.896,243.832 16.091,243.463 15.307,243.198 L3.732,239.28 C2.792,238.962 2.186,239.332 2.183,240.546 C2.179,241.92 2.984,242.545 3.745,242.802 L6.23,243.643 L6.227,244.826 L3.72,243.977 C2.399,243.53 1.371,242.255 1.377,240.306 C1.383,238.165 2.258,237.502 3.49,237.919" id="Fill-52"></path>
                        <polyline id="Fill-53" points="1.583 227.026 1.548 226.352 17.856 222.975 17.891 223.649 1.583 227.026"></polyline>
                    </g>
                </g>
            </g>
        </g>
    </g>
</svg>