<?xml version="1.0" encoding="UTF-8"?>
<svg width="52px" height="277px" viewBox="0 0 52 277" version="1.1" xmlns="http://www.w3.org/2000/svg" xmlns:xlink="http://www.w3.org/1999/xlink">
    <!-- Generator: Sketch 48.2 (47327) - http://www.bohemiancoding.com/sketch -->
    <title>Group 8</title>
    <desc>Created with Sketch.</desc>
    <defs></defs>
    <g id="Main-Projects" stroke="none" stroke-width="1" fill="none" fill-rule="evenodd" transform="translate(-934.000000, -165.000000)">
        <g id="Start" transform="translate(26.000000, 27.000000)">
            <g id="C_Ctart_panel-2-Copy" transform="translate(1.000000, 0.000000)">
                <g id="Group-8" transform="translate(907.000000, 138.000000)">
                    <path d="M33.32,252.375 C33.32,256.578 29.91,259.986 25.71,259.986 C21.5,259.986 18.09,256.578 18.09,252.375 C18.09,248.172 21.5,244.764 25.71,244.764 C29.91,244.764 33.32,248.172 33.32,252.375" id="Fill-60" fill="#FFFFFE"></path>
                    <path d="M25.7,259.73 C21.65,259.73 18.35,256.43 18.35,252.37 C18.35,248.32 21.65,245.02 25.7,245.02 C29.76,245.02 33.05,248.32 33.05,252.37 C33.05,256.43 29.76,259.73 25.7,259.73 Z M25.7,244.51 C21.36,244.51 17.84,248.03 17.84,252.38 C17.84,256.72 21.36,260.24 25.7,260.24 C30.05,260.24 33.57,256.72 33.57,252.38 C33.57,248.03 30.05,244.51 25.7,244.51 Z" id="Fill-61" fill="#000105"></path>
                    <path d="M25.7,259.73 C21.65,259.73 18.35,256.43 18.35,252.37 C18.35,248.32 21.65,245.02 25.7,245.02 C29.76,245.02 33.05,248.32 33.05,252.37 C33.05,256.43 29.76,259.73 25.7,259.73 Z M25.7,243.99 C21.08,243.99 17.32,247.75 17.32,252.37 C17.32,257 21.08,260.76 25.7,260.76 C30.32,260.76 34.09,257 34.09,252.37 C34.09,247.75 30.32,243.99 25.7,243.99 Z" id="Fill-62" fill="#000105"></path>
                    <path d="M25.7,259.73 C24.1,259.73 22.38,256.77 22.38,252.37 C22.38,247.98 24.1,245.02 25.7,245.02 C27.31,245.02 29.02,247.98 29.02,252.37 C29.02,256.77 27.31,259.73 25.7,259.73 Z M25.7,244.51 C23.58,244.51 21.87,248.03 21.87,252.38 C21.87,256.72 23.58,260.24 25.7,260.24 C27.82,260.24 29.54,256.72 29.54,252.38 C29.54,248.03 27.82,244.51 25.7,244.51 Z" id="Fill-63" fill="#000105"></path>
                    <path d="M25.7,259.73 C24.1,259.73 22.38,256.77 22.38,252.37 C22.38,247.98 24.1,245.02 25.7,245.02 C27.31,245.02 29.02,247.98 29.02,252.37 C29.02,256.77 27.31,259.73 25.7,259.73 Z M25.7,243.99 C23.26,243.99 21.35,247.67 21.35,252.37 C21.35,257.08 23.26,260.76 25.7,260.76 C28.14,260.76 30.06,257.08 30.06,252.37 C30.06,247.67 28.14,243.99 25.7,243.99 Z" id="Fill-64" fill="#000105"></path>
                    <polygon id="Fill-65" fill="#000105" points="25.19 260.242 26.22 260.242 26.22 244.508 25.19 244.508"></polygon>
                    <polygon id="Fill-66" fill="#000105" points="17.84 252.891 33.57 252.891 33.57 251.859 17.84 251.859"></polygon>
                    <path d="M1.31,220.667 L50.27,220.667 L50.27,1.698 L1.31,1.698 L1.31,220.667 Z M0.31,221.667 L51.27,221.667 L51.27,0.698 L0.31,0.698 L0.31,221.667 Z" id="Fill-9" fill="#000105"></path>
                    <path d="M25.7,221.667 C25.43,221.667 25.2,221.443 25.2,221.167 L25.2,1.198 C25.2,0.921 25.43,0.698 25.7,0.698 C25.98,0.698 26.2,0.921 26.2,1.198 L26.2,221.167 C26.2,221.443 25.98,221.667 25.7,221.667" id="Fill-10" fill="#000105"></path>
                    <path d="M50.77,199.958 L0.81,199.958 C0.53,199.958 0.31,199.734 0.31,199.458 C0.31,199.182 0.53,198.958 0.81,198.958 L50.77,198.958 C51.05,198.958 51.27,199.182 51.27,199.458 C51.27,199.734 51.05,199.958 50.77,199.958" id="Fill-11" fill="#000105"></path>
                    <path d="M1.31,275.833 L50.27,275.833 L50.27,225.083 L1.31,225.083 L1.31,275.833 Z M0.31,276.833 L51.27,276.833 L51.27,224.083 L0.31,224.083 L0.31,276.833 Z" id="Fill-12" fill="#000105"></path>
                    <path d="M50.54,177.333 L1.04,177.333 C0.76,177.333 0.54,177.109 0.54,176.833 C0.54,176.557 0.76,176.333 1.04,176.333 L50.54,176.333 C50.82,176.333 51.04,176.557 51.04,176.833 C51.04,177.109 50.82,177.333 50.54,177.333" id="Fill-13" fill="#000105"></path>
                    <path d="M50.54,155.708 L1.04,155.708 C0.76,155.708 0.54,155.485 0.54,155.208 C0.54,154.932 0.76,154.708 1.04,154.708 L50.54,154.708 C50.82,154.708 51.04,154.932 51.04,155.208 C51.04,155.485 50.82,155.708 50.54,155.708" id="Fill-14" fill="#000105"></path>
                    <path d="M50.54,134.083 L1.04,134.083 C0.76,134.083 0.54,133.86 0.54,133.583 C0.54,133.307 0.76,133.083 1.04,133.083 L50.54,133.083 C50.82,133.083 51.04,133.307 51.04,133.583 C51.04,133.86 50.82,134.083 50.54,134.083" id="Fill-15" fill="#000105"></path>
                    <path d="M50.77,111.458 L0.81,111.458 C0.53,111.458 0.31,111.235 0.31,110.958 C0.31,110.682 0.53,110.458 0.81,110.458 L50.77,110.458 C51.05,110.458 51.27,110.682 51.27,110.958 C51.27,111.235 51.05,111.458 50.77,111.458" id="Fill-16" fill="#000105"></path>
                    <path d="M50.54,89.833 L1.04,89.833 C0.76,89.833 0.54,89.61 0.54,89.333 C0.54,89.057 0.76,88.833 1.04,88.833 L50.54,88.833 C50.82,88.833 51.04,89.057 51.04,89.333 C51.04,89.61 50.82,89.833 50.54,89.833" id="Fill-17" fill="#000105"></path>
                    <path d="M50.54,67.208 L1.04,67.208 C0.76,67.208 0.54,66.985 0.54,66.708 C0.54,66.432 0.76,66.208 1.04,66.208 L50.54,66.208 C50.82,66.208 51.04,66.432 51.04,66.708 C51.04,66.985 50.82,67.208 50.54,67.208" id="Fill-18" fill="#000105"></path>
                    <path d="M50.54,45.583 L1.04,45.583 C0.76,45.583 0.54,45.36 0.54,45.083 C0.54,44.807 0.76,44.583 1.04,44.583 L50.54,44.583 C50.82,44.583 51.04,44.807 51.04,45.083 C51.04,45.36 50.82,45.583 50.54,45.583" id="Fill-19" fill="#000105"></path>
                    <path d="M17.39,47.386 C12.7,45.114 10.33,41.385 10.33,36.34 C10.33,28.574 15.83,23.383 23.94,23.383 C28.28,23.383 32.21,24.845 34.84,27.368 C37.01,29.587 38.21,32.713 38.21,36.34 C38.21,41.936 35.19,46.73 31.61,46.73 C30.09,46.73 29.14,45.37 29.14,43.301 C29.14,42.138 29.49,41.183 30.05,40.729 C30.45,40.426 30.45,40.426 32.27,40.324 C35.29,40.122 37.01,38.66 37.01,36.19 C37.01,34.121 35.74,32.355 33.78,31.555 C31.56,30.696 27.98,30.136 24.85,30.136 C21.58,30.136 18.6,30.744 16.28,31.902 C13.71,33.214 12.29,35.336 12.29,37.903 C12.29,41.385 14.51,44.357 18.25,46.074 L17.39,47.386" id="Fill-21" fill="#000105"></path>
                    <path d="M17.27,135.183 C12.58,132.911 10.22,129.182 10.22,124.136 C10.22,116.37 15.71,111.18 23.83,111.18 C28.16,111.18 32.1,112.641 34.72,115.164 C36.89,117.383 38.1,120.509 38.1,124.136 C38.1,129.732 35.07,134.527 31.49,134.527 C29.98,134.527 29.02,133.166 29.02,131.097 C29.02,129.934 29.38,128.979 29.93,128.526 C30.33,128.222 30.33,128.222 32.15,128.121 C35.17,127.918 36.89,126.456 36.89,123.987 C36.89,121.917 35.63,120.152 33.66,119.351 C31.44,118.492 27.86,117.933 24.73,117.933 C21.46,117.933 18.48,118.541 16.16,119.698 C13.59,121.01 12.18,123.133 12.18,125.699 C12.18,129.182 14.4,132.153 18.13,133.871 L17.27,135.183" id="Fill-22" fill="#000105"></path>
                    <polygon id="Fill-23" fill="#000105" points="10.59 91.822 13.16 91.822 13.16 66.613 10.59 66.613"></polygon>
                    <polyline id="Fill-24" fill="#000105" points="1.19 180.995 36.38 180.995 18.8 155.862 1.19 180.995"></polyline>
                    <path d="M1.17,190.688 L1.17,193.134 L1.23,193.134 C19.59,193.144 36.21,196.941 36.21,199.598 C36.21,202.258 19.56,206.019 1.17,206.019 L1.17,206 L1.17,208.54 C26.09,208.54 48.1,203.81 48.1,199.602 C48.1,195.394 26.09,190.688 1.17,190.688" id="Fill-25" fill="#000105"></path>
                    <path d="M50.54,23.958 L1.04,23.958 C0.76,23.958 0.54,23.735 0.54,23.458 C0.54,23.182 0.76,22.958 1.04,22.958 L50.54,22.958 C50.82,22.958 51.04,23.182 51.04,23.458 C51.04,23.735 50.82,23.958 50.54,23.958" id="Fill-20" fill="#000105"></path>
                </g>
            </g>
        </g>
    </g>
</svg>