<?xml version="1.0" encoding="UTF-8"?>
<svg width="67px" height="73px" viewBox="0 0 67 73" version="1.1" xmlns="http://www.w3.org/2000/svg" xmlns:xlink="http://www.w3.org/1999/xlink">
    <!-- Generator: Sketch 48.2 (47327) - http://www.bohemiancoding.com/sketch -->
    <title>Group 6</title>
    <desc>Created with Sketch.</desc>
    <defs></defs>
    <g id="Main-Projects" stroke="none" stroke-width="1" fill="none" fill-rule="evenodd" transform="translate(-893.000000, -41.000000)">
        <g id="Start" transform="translate(26.000000, 27.000000)" fill="#000105">
            <g id="C_Ctart_panel-2-Copy" transform="translate(1.000000, 0.000000)">
                <g id="Group-6" transform="translate(866.000000, 14.000000)">
                    <path d="M41.6588549,58 L41.6588549,44 L54.3068418,44 L54.3068418,34 L34.8108735,34 L36.9248942,30 L64.1090316,30 L50.6298913,58 L41.6588549,58 Z M44.3872064,71 L17.1940347,71 L32.6245786,39.712 L32.6245786,68 L45.8326906,68 L44.3872064,71 Z M10.9423155,21.159 L10.9423155,7 L29.9142957,7 L29.9142957,13 L16.3628813,13 L16.3628813,31 L29.9142957,31 L29.9142957,37 L10.9423155,37 L10.9423155,21.159 Z M52.4999865,66 L33.5280063,66 L33.5280063,36 L52.4999865,36 L52.4999865,42 L39.8519997,42 L39.8519997,60 L52.4999865,60 L52.4999865,66 Z M67,28 L37.7289447,28 L50.9189882,0 L21.1058763,0 L18.7479302,5 L9.13546021,5 L9.13546021,24.818 L0,44 L27.9538578,44 L14.3121005,73 L45.4442167,73 L47.8021628,68 L54.3068418,68 L54.3068418,58 L52.5993636,58 L67,28 Z" id="Fill-4"></path>
                </g>
            </g>
        </g>
    </g>
</svg>