<?xml version="1.0" encoding="UTF-8"?>
<svg width="64px" height="19px" viewBox="0 0 64 19" version="1.1" xmlns="http://www.w3.org/2000/svg" xmlns:xlink="http://www.w3.org/1999/xlink">
    <!-- Generator: Sketch 48.2 (47327) - http://www.bohemiancoding.com/sketch -->
    <title>Group 3</title>
    <desc>Created with Sketch.</desc>
    <defs></defs>
    <g id="Main-Projects" stroke="none" stroke-width="1" fill="none" fill-rule="evenodd" transform="translate(-28.000000, -600.000000)">
        <g id="Start" transform="translate(26.000000, 27.000000)">
            <g id="Group-3" transform="translate(1.000000, 573.000000)">
                <g id="Elements">
                    <polygon id="Fill-2" fill="#9D9C98" points="2.248 17.356 63.936 17.356 63.936 1.647 2.248 1.647"></polygon>
                    <polygon id="Fill-3" fill="#C1C1BC" points="0.998 2.606 64.873 2.606 64.873 0.689 0.998 0.689"></polygon>
                    <polygon id="Fill-4" fill="#7A7C78" points="0.998 18.314 64.873 18.314 64.873 16.397 0.998 16.397"></polygon>
                    <polyline id="Fill-5" fill="#7A7C78" points="62.998 18.314 64.873 18.314 64.873 0.689 62.998 2.606 62.998 18.314"></polyline>
                    <polyline id="Fill-6" fill="#C1C1BC" points="2.873 0.689 0.998 0.689 0.998 18.314 2.873 16.397 2.873 0.689"></polyline>
                </g>
                <g id="Text-/-C_Ctart" transform="translate(5.000000, 4.000000)" fill="#1B1A19">
                    <path d="M1.731,9.591 C1.167,9.069 0.884,8.352 0.884,7.439 C0.884,7.157 0.912,6.86 0.969,6.55 C1.082,5.872 1.26,5.035 1.505,4.037 C1.806,2.841 2.335,1.905 3.093,1.227 C3.851,0.549 4.855,0.212 6.107,0.212 C6.86,0.212 7.493,0.329 8.006,0.564 C8.519,0.799 8.902,1.117 9.156,1.517 C9.411,1.917 9.538,2.362 9.538,2.851 C9.538,3.02 9.523,3.19 9.495,3.359 C9.467,3.547 9.373,3.641 9.213,3.641 L8.465,3.641 C8.239,3.641 8.13,3.538 8.14,3.331 C8.149,3.265 8.154,3.175 8.154,3.063 C8.154,1.933 7.453,1.369 6.051,1.369 C5.251,1.369 4.573,1.592 4.018,2.04 C3.462,2.486 3.072,3.175 2.846,4.107 C2.648,4.888 2.48,5.679 2.338,6.479 C2.282,6.79 2.253,7.077 2.253,7.34 C2.253,8.583 2.917,9.204 4.244,9.204 C4.959,9.204 5.568,9.057 6.072,8.766 C6.575,8.474 6.982,7.97 7.293,7.255 C7.34,7.142 7.394,7.062 7.456,7.015 C7.517,6.968 7.594,6.945 7.688,6.945 L8.437,6.945 C8.521,6.945 8.587,6.971 8.634,7.022 C8.681,7.074 8.69,7.142 8.662,7.227 C8.408,8.122 7.921,8.87 7.201,9.471 C6.482,10.074 5.482,10.376 4.202,10.376 C3.119,10.376 2.296,10.114 1.731,9.591" id="Fill-7"></path>
                    <path d="M9.552,10.707 C9.504,10.645 9.49,10.568 9.509,10.474 L9.608,9.965 C9.627,9.872 9.674,9.796 9.749,9.74 C9.824,9.683 9.909,9.655 10.003,9.655 L18.191,9.655 C18.285,9.655 18.355,9.683 18.403,9.74 C18.45,9.796 18.464,9.872 18.445,9.965 L18.332,10.474 C18.313,10.568 18.269,10.645 18.198,10.707 C18.128,10.768 18.045,10.799 17.951,10.799 L9.763,10.799 C9.669,10.799 9.599,10.768 9.552,10.707" id="Fill-8"></path>
                    <path d="M21.537,9.591 C20.972,9.069 20.69,8.352 20.69,7.439 C20.69,7.157 20.718,6.86 20.774,6.55 C20.887,5.872 21.066,5.035 21.311,4.037 C21.612,2.841 22.141,1.905 22.899,1.227 C23.656,0.549 24.661,0.212 25.913,0.212 C26.666,0.212 27.298,0.329 27.812,0.564 C28.324,0.799 28.708,1.117 28.962,1.517 C29.216,1.917 29.343,2.362 29.343,2.851 C29.343,3.02 29.329,3.19 29.301,3.359 C29.272,3.547 29.178,3.641 29.019,3.641 L28.271,3.641 C28.044,3.641 27.936,3.538 27.945,3.331 C27.955,3.265 27.96,3.175 27.96,3.063 C27.96,1.933 27.258,1.369 25.856,1.369 C25.056,1.369 24.379,1.592 23.823,2.04 C23.268,2.486 22.878,3.175 22.652,4.107 C22.454,4.888 22.285,5.679 22.144,6.479 C22.087,6.79 22.059,7.077 22.059,7.34 C22.059,8.583 22.722,9.204 24.049,9.204 C24.765,9.204 25.374,9.057 25.878,8.766 C26.381,8.474 26.788,7.97 27.099,7.255 C27.146,7.142 27.2,7.062 27.261,7.015 C27.322,6.968 27.399,6.945 27.494,6.945 L28.242,6.945 C28.327,6.945 28.393,6.971 28.439,7.022 C28.487,7.074 28.496,7.142 28.468,7.227 C28.214,8.122 27.727,8.87 27.007,9.471 C26.287,10.074 25.287,10.376 24.007,10.376 C22.925,10.376 22.101,10.114 21.537,9.591" id="Fill-9"></path>
                    <path d="M30.931,9.845 C30.635,9.587 30.486,9.209 30.486,8.71 C30.486,8.436 30.524,8.122 30.599,7.763 L31.404,3.98 L30.303,3.98 C30.208,3.98 30.136,3.952 30.084,3.895 C30.032,3.839 30.016,3.764 30.035,3.67 L30.133,3.218 C30.152,3.124 30.199,3.046 30.274,2.985 C30.35,2.924 30.435,2.893 30.529,2.893 L31.63,2.893 L32.138,0.536 C32.157,0.442 32.202,0.364 32.272,0.303 C32.343,0.242 32.425,0.212 32.519,0.212 L33.126,0.212 C33.229,0.212 33.305,0.242 33.352,0.303 C33.399,0.364 33.413,0.442 33.395,0.536 L32.886,2.893 L34.637,2.893 C34.73,2.893 34.801,2.921 34.849,2.978 C34.896,3.035 34.91,3.115 34.891,3.218 L34.792,3.67 C34.773,3.764 34.729,3.839 34.658,3.895 C34.587,3.952 34.505,3.98 34.411,3.98 L32.66,3.98 L31.87,7.665 C31.785,8.05 31.743,8.328 31.743,8.498 C31.743,8.705 31.801,8.86 31.919,8.964 C32.037,9.067 32.241,9.119 32.533,9.119 L33.465,9.119 C33.559,9.119 33.627,9.149 33.67,9.211 C33.712,9.272 33.724,9.349 33.705,9.443 L33.606,9.91 C33.587,10.004 33.542,10.081 33.472,10.142 C33.401,10.204 33.319,10.234 33.225,10.234 L32.406,10.234 C31.719,10.234 31.228,10.105 30.931,9.845" id="Fill-10"></path>
                    <path d="M39.486,8.611 C39.933,8.169 40.227,7.651 40.368,7.057 C40.49,6.559 40.57,6.197 40.608,5.97 C40.646,5.726 40.665,5.548 40.665,5.434 C40.665,4.973 40.542,4.594 40.297,4.297 C40.053,4.002 39.662,3.853 39.126,3.853 C38.495,3.853 37.98,4.067 37.58,4.496 C37.18,4.924 36.881,5.476 36.684,6.154 C36.599,6.446 36.542,6.719 36.514,6.973 C36.467,7.284 36.443,7.551 36.443,7.778 C36.443,8.775 36.9,9.274 37.813,9.274 C38.481,9.274 39.039,9.053 39.486,8.611 Z M35.717,9.67 C35.326,9.199 35.131,8.583 35.131,7.82 C35.131,7.576 35.154,7.297 35.201,6.987 C35.229,6.752 35.291,6.469 35.385,6.14 C35.639,5.143 36.056,4.329 36.634,3.698 C37.213,3.068 38.006,2.753 39.013,2.753 C39.578,2.753 40.018,2.844 40.333,3.027 C40.648,3.211 40.899,3.467 41.088,3.796 L41.215,3.218 C41.234,3.124 41.279,3.046 41.349,2.985 C41.42,2.924 41.502,2.893 41.596,2.893 L42.203,2.893 C42.297,2.893 42.368,2.924 42.415,2.985 C42.462,3.046 42.476,3.124 42.458,3.218 L41.046,9.91 C41.027,10.004 40.982,10.081 40.912,10.142 C40.841,10.204 40.758,10.234 40.665,10.234 L40.058,10.234 C39.963,10.234 39.89,10.204 39.839,10.142 C39.787,10.081 39.771,10.004 39.789,9.91 L39.931,9.302 C39.582,9.66 39.239,9.928 38.9,10.107 C38.561,10.286 38.114,10.376 37.559,10.376 C36.721,10.376 36.107,10.14 35.717,9.67 Z" id="Fill-11"></path>
                    <path d="M43.17,10.142 C43.118,10.081 43.102,10.004 43.121,9.91 L44.546,3.232 C44.565,3.138 44.612,3.058 44.688,2.992 C44.763,2.926 44.848,2.893 44.942,2.893 L45.535,2.893 C45.638,2.893 45.713,2.926 45.761,2.992 C45.808,3.058 45.822,3.138 45.803,3.232 L45.662,3.853 C46.113,3.213 46.824,2.893 47.794,2.893 L48.386,2.893 C48.48,2.893 48.551,2.921 48.598,2.978 C48.645,3.035 48.659,3.115 48.641,3.218 L48.527,3.74 C48.518,3.835 48.476,3.912 48.4,3.973 C48.325,4.035 48.24,4.065 48.146,4.065 L47.328,4.065 C46.81,4.065 46.37,4.215 46.008,4.516 C45.646,4.818 45.412,5.227 45.309,5.745 L44.419,9.91 C44.4,10.004 44.354,10.081 44.278,10.142 C44.203,10.204 44.118,10.234 44.024,10.234 L43.389,10.234 C43.295,10.234 43.222,10.204 43.17,10.142" id="Fill-12"></path>
                    <path d="M49.763,9.845 C49.466,9.587 49.318,9.209 49.318,8.71 C49.318,8.436 49.355,8.122 49.431,7.763 L50.235,3.98 L49.134,3.98 C49.04,3.98 48.967,3.952 48.916,3.895 C48.864,3.839 48.847,3.764 48.866,3.67 L48.965,3.218 C48.984,3.124 49.031,3.046 49.106,2.985 C49.182,2.924 49.266,2.893 49.36,2.893 L50.461,2.893 L50.97,0.536 C50.988,0.442 51.033,0.364 51.104,0.303 C51.174,0.242 51.257,0.212 51.351,0.212 L51.958,0.212 C52.061,0.212 52.137,0.242 52.184,0.303 C52.23,0.364 52.245,0.442 52.226,0.536 L51.718,2.893 L53.468,2.893 C53.563,2.893 53.633,2.921 53.68,2.978 C53.727,3.035 53.741,3.115 53.723,3.218 L53.624,3.67 C53.604,3.764 53.56,3.839 53.489,3.895 C53.419,3.952 53.336,3.98 53.242,3.98 L51.492,3.98 L50.701,7.665 C50.617,8.05 50.574,8.328 50.574,8.498 C50.574,8.705 50.633,8.86 50.751,8.964 C50.868,9.067 51.073,9.119 51.365,9.119 L52.296,9.119 C52.391,9.119 52.459,9.149 52.502,9.211 C52.543,9.272 52.555,9.349 52.537,9.443 L52.438,9.91 C52.419,10.004 52.374,10.081 52.304,10.142 C52.233,10.204 52.15,10.234 52.057,10.234 L51.238,10.234 C50.551,10.234 50.059,10.105 49.763,9.845" id="Fill-13"></path>
                </g>
            </g>
        </g>
    </g>
</svg>