<?xml version="1.0" encoding="UTF-8"?>
<svg width="14px" height="13px" viewBox="0 0 14 13" version="1.1" xmlns="http://www.w3.org/2000/svg" xmlns:xlink="http://www.w3.org/1999/xlink">
    <!-- Generator: Sketch 48.2 (47327) - http://www.bohemiancoding.com/sketch -->
    <title>Globe Icon</title>
    <desc>Created with Sketch.</desc>
    <defs></defs>
    <g id="Main-Projects" stroke="none" stroke-width="1" fill="none" fill-rule="evenodd" transform="translate(-778.000000, -603.000000)">
        <g id="Start" transform="translate(26.000000, 27.000000)">
            <g id="Globe-Icon" transform="translate(752.000000, 576.000000)">
                <path d="M13.02,6.504 C13.02,9.769 10.38,12.415 7.11,12.415 C3.85,12.415 1.2,9.769 1.2,6.504 C1.2,3.24 3.85,0.594 7.11,0.594 C10.38,0.594 13.02,3.24 13.02,6.504" id="Fill-34" fill="#FFFFFE"></path>
                <path d="M7.11,0.981 C4.07,0.981 1.59,3.459 1.59,6.504 C1.59,9.549 4.07,12.027 7.11,12.027 C10.16,12.027 12.63,9.549 12.63,6.504 C12.63,3.459 10.16,0.981 7.11,0.981 Z M7.11,12.802 C3.64,12.802 0.81,9.977 0.81,6.504 C0.81,3.031 3.64,0.206 7.11,0.206 C10.58,0.206 13.41,3.031 13.41,6.504 C13.41,9.977 10.58,12.802 7.11,12.802 Z" id="Fill-35" fill="#1B1A19"></path>
                <path d="M9.99,6.504 C9.99,9.769 8.7,12.415 7.11,12.415 C5.52,12.415 4.23,9.769 4.23,6.504 C4.23,3.24 5.52,0.594 7.11,0.594 C8.7,0.594 9.99,3.24 9.99,6.504" id="Fill-36" fill="#FFFFFE"></path>
                <path d="M7.11,0.981 C5.91,0.981 4.62,3.201 4.62,6.504 C4.62,9.807 5.91,12.027 7.11,12.027 C8.32,12.027 9.61,9.807 9.61,6.504 C9.61,3.201 8.32,0.981 7.11,0.981 Z M7.11,12.802 C5.28,12.802 3.84,10.036 3.84,6.504 C3.84,2.973 5.28,0.206 7.11,0.206 C8.94,0.206 10.38,2.973 10.38,6.504 C10.38,10.036 8.94,12.802 7.11,12.802 Z" id="Fill-37" fill="#1B1A19"></path>
                <polygon id="Fill-38" fill="#1B1A19" points="6.72 12.414 7.5 12.414 7.5 0.593 6.72 0.593"></polygon>
                <polygon id="Fill-39" fill="#1B1A19" points="1.2 6.892 13.02 6.892 13.02 6.117 1.2 6.117"></polygon>
            </g>
        </g>
    </g>
</svg>