<?xml version="1.0" encoding="UTF-8"?>
<svg width="14px" height="12px" viewBox="0 0 14 12" version="1.1" xmlns="http://www.w3.org/2000/svg" xmlns:xlink="http://www.w3.org/1999/xlink">
    <!-- Generator: Sketch 48.2 (47327) - http://www.bohemiancoding.com/sketch -->
    <title>Group 24</title>
    <desc>Created with Sketch.</desc>
    <defs></defs>
    <g id="Main-Projects" stroke="none" stroke-width="1" fill="none" fill-rule="evenodd" transform="translate(-909.000000, -259.000000)">
        <g id="Start" transform="translate(26.000000, 27.000000)" fill="#000105">
            <g id="C_Ctart_panel-2-Copy" transform="translate(1.000000, 0.000000)">
                <g id="Group-24" transform="translate(882.000000, 232.000000)">
                    <g id="Group-23">
                        <path d="M1.4,10.53 L3.33,10.53 L3.33,1.761 L1.4,1.761 L1.4,10.53 Z M0.4,11.53 L4.33,11.53 L4.33,0.761 L0.4,0.761 L0.4,11.53 Z" id="Fill-92"></path>
                        <path d="M4.33,3.849 L6.42,3.849 L6.42,1.761 L4.33,1.761 L4.33,3.849 Z M3.33,4.849 L7.42,4.849 L7.42,0.761 L3.33,0.761 L3.33,4.849 Z" id="Fill-94"></path>
                        <path d="M4.33,10.53 L6.42,10.53 L6.42,8.443 L4.33,8.443 L4.33,10.53 Z M3.33,11.53 L7.42,11.53 L7.42,7.443 L3.33,7.443 L3.33,11.53 Z" id="Fill-96"></path>
                        <path d="M4.33,7.189 L6.42,7.189 L6.42,5.102 L4.33,5.102 L4.33,7.189 Z M3.33,8.189 L7.42,8.189 L7.42,4.102 L3.33,4.102 L3.33,8.189 Z" id="Fill-97"></path>
                        <path d="M7.42,3.849 L9.51,3.849 L9.51,1.761 L7.42,1.761 L7.42,3.849 Z M6.42,4.849 L10.51,4.849 L10.51,0.761 L6.42,0.761 L6.42,4.849 Z" id="Fill-98"></path>
                        <polygon id="Fill-100" points="11.48 3.871 13.62 3.871 13.62 1.739 11.48 1.739"></polygon>
                        <polygon id="Fill-110" points="11.48 10.553 13.62 10.553 13.62 8.42 11.48 8.42"></polygon>
                        <polygon id="Fill-112" points="11.48 7.212 13.62 7.212 13.62 5.08 11.48 5.08"></polygon>
                        <path d="M7.42,10.53 L9.51,10.53 L9.51,8.443 L7.42,8.443 L7.42,10.53 Z M6.42,11.53 L10.51,11.53 L10.51,7.443 L6.42,7.443 L6.42,11.53 Z" id="Fill-115"></path>
                    </g>
                    <path d="M7.42,7.443 L9.51,7.443 L9.51,5.356 L7.42,5.356 L7.42,7.443 Z M6.42,8.443 L10.51,8.443 L10.51,4.356 L6.42,4.356 L6.42,8.443 Z" id="Fill-117"></path>
                    <g id="Group-25" transform="translate(0.000000, 1.000000)">
                        <polygon id="Fill-91" points="0.9 10.03 3.83 10.03 3.83 0.261 0.9 0.261"></polygon>
                        <polygon id="Fill-93" points="3.83 3.349 6.92 3.349 6.92 0.261 3.83 0.261"></polygon>
                        <polygon id="Fill-95" points="3.83 10.03 6.92 10.03 6.92 6.943 3.83 6.943"></polygon>
                        <polygon id="Fill-99" points="11.98 2.371 13.12 2.371 13.12 1.239 11.98 1.239"></polygon>
                        <polygon id="Fill-109" points="11.98 9.053 13.12 9.053 13.12 7.92 11.98 7.92"></polygon>
                        <polygon id="Fill-111" points="11.98 5.712 13.12 5.712 13.12 4.58 11.98 4.58"></polygon>
                        <polygon id="Fill-116" points="6.92 6.943 10.01 6.943 10.01 3.856 6.92 3.856"></polygon>
                    </g>
                </g>
            </g>
        </g>
    </g>
</svg>