<?xml version="1.0" encoding="UTF-8"?>
<svg width="20px" height="14px" viewBox="0 0 20 14" version="1.1" xmlns="http://www.w3.org/2000/svg" xmlns:xlink="http://www.w3.org/1999/xlink">
    <!-- Generator: Sketch 48.2 (47327) - http://www.bohemiancoding.com/sketch -->
    <title>Group 14</title>
    <desc>Created with Sketch.</desc>
    <defs></defs>
    <g id="Main-Projects" stroke="none" stroke-width="1" fill="none" fill-rule="evenodd" transform="translate(-880.000000, -302.000000)">
        <g id="Start" transform="translate(26.000000, 27.000000)" fill="#000105">
            <g id="C_Ctart_panel-2-Copy" transform="translate(1.000000, 0.000000)">
                <g id="Group-14" transform="translate(853.000000, 275.000000)">
                    <path d="M10.81,9.626 C10.68,9.626 10.55,9.573 10.45,9.469 C10.26,9.269 10.27,8.952 10.47,8.762 L18.6,1.094 C18.8,0.905 19.12,0.913 19.3,1.114 C19.49,1.315 19.48,1.632 19.28,1.821 L11.16,9.49 C11.06,9.581 10.94,9.626 10.81,9.626" id="Fill-130"></path>
                    <path d="M1.546,12.628 L10.62,12.628 L18.44,5.244 L18.44,1.958 L9.37,1.958 L1.546,9.342 L1.546,12.628 Z M11.01,13.628 L0.546,13.628 L0.546,8.91 L8.97,0.958 L19.44,0.958 L19.44,5.675 L11.01,13.628 Z" id="Fill-131"></path>
                    <path d="M10.81,13.628 C10.54,13.628 10.31,13.404 10.31,13.128 L10.31,9.626 L1.046,9.626 C0.77,9.626 0.546,9.402 0.546,9.126 C0.546,8.85 0.77,8.626 1.046,8.626 L11.31,8.626 L11.31,13.128 C11.31,13.404 11.09,13.628 10.81,13.628" id="Fill-132"></path>
                </g>
            </g>
        </g>
    </g>
</svg>