<?xml version="1.0" encoding="UTF-8"?>
<svg width="17px" height="17px" viewBox="0 0 17 17" version="1.1" xmlns="http://www.w3.org/2000/svg" xmlns:xlink="http://www.w3.org/1999/xlink">
    <!-- Generator: Sketch 48.2 (47327) - http://www.bohemiancoding.com/sketch -->
    <title>Group 26</title>
    <desc>Created with Sketch.</desc>
    <defs></defs>
    <g id="Main-Projects" stroke="none" stroke-width="1" fill="none" fill-rule="evenodd" transform="translate(-906.000000, -300.000000)">
        <g id="Start" transform="translate(26.000000, 27.000000)" fill="#000105">
            <g id="C_Ctart_panel-2-Copy" transform="translate(1.000000, 0.000000)">
                <g id="Group-26" transform="translate(879.000000, 273.000000)">
                    <path d="M11.99,3.787 L13.67,5.466 L15.35,3.787 L13.67,2.107 L11.99,3.787 Z M13.67,6.88 L10.57,3.787 L13.67,0.693 L16.76,3.787 L13.67,6.88 Z" id="Fill-133"></path>
                    <path d="M3.43,12.342 L5.11,14.022 L12.96,6.173 L11.28,4.494 L3.43,12.342 Z M5.11,15.436 L2.02,12.342 L11.28,3.08 L14.37,6.173 L5.11,15.436 Z" id="Fill-134"></path>
                    <path d="M0.46,16.988 L1.97,12.46 C2.06,12.198 2.34,12.058 2.61,12.144 C2.87,12.231 3.01,12.514 2.92,12.776 L2.05,15.407 L4.68,14.531 C4.94,14.445 5.22,14.584 5.31,14.847 C5.4,15.109 5.25,15.392 4.99,15.479 L0.46,16.988" id="Fill-135"></path>
                </g>
            </g>
        </g>
    </g>
</svg>