<?xml version="1.0" encoding="UTF-8"?>
<svg width="20px" height="16px" viewBox="0 0 20 16" version="1.1" xmlns="http://www.w3.org/2000/svg" xmlns:xlink="http://www.w3.org/1999/xlink">
    <!-- Generator: Sketch 48.2 (47327) - http://www.bohemiancoding.com/sketch -->
    <title>Group 15</title>
    <desc>Created with Sketch.</desc>
    <defs></defs>
    <g id="Main-Projects" stroke="none" stroke-width="1" fill="none" fill-rule="evenodd" transform="translate(-880.000000, -323.000000)">
        <g id="Start" transform="translate(26.000000, 27.000000)" fill="#000105">
            <g id="C_Ctart_panel-2-Copy" transform="translate(1.000000, 0.000000)">
                <g id="Group-15" transform="translate(853.000000, 296.000000)">
                    <path d="M5.41,1.227 C3.346,1.227 1.668,2.905 1.668,4.968 L1.668,11.074 C1.668,13.137 3.346,14.814 5.41,14.814 L11.51,14.814 C13.58,14.814 15.26,13.137 15.26,11.074 L15.26,4.968 C15.26,2.905 13.58,1.227 11.51,1.227 L5.41,1.227 Z M11.51,15.814 L5.41,15.814 C2.794,15.814 0.668,13.688 0.668,11.074 L0.668,4.968 C0.668,2.354 2.794,0.227 5.41,0.227 L11.51,0.227 C14.13,0.227 16.26,2.354 16.26,4.968 L16.26,11.074 C16.26,13.688 14.13,15.814 11.51,15.814 Z" id="Fill-125"></path>
                    <path d="M9.05,1.227 C6.99,1.227 5.31,2.905 5.31,4.968 L5.31,11.074 C5.31,13.137 6.99,14.814 9.05,14.814 L15.16,14.814 C17.22,14.814 18.9,13.137 18.9,11.074 L18.9,4.968 C18.9,2.905 17.22,1.227 15.16,1.227 L9.05,1.227 Z M15.16,15.814 L9.05,15.814 C6.44,15.814 4.312,13.688 4.312,11.074 L4.312,4.968 C4.312,2.354 6.44,0.227 9.05,0.227 L15.16,0.227 C17.77,0.227 19.9,2.354 19.9,4.968 L19.9,11.074 C19.9,13.688 17.77,15.814 15.16,15.814 Z" id="Fill-126"></path>
                    <path d="M7.29,1.227 C5.23,1.227 3.549,2.905 3.549,4.968 L3.549,11.074 C3.549,13.137 5.23,14.814 7.29,14.814 L13.4,14.814 C15.46,14.814 17.14,13.137 17.14,11.074 L17.14,4.968 C17.14,2.905 15.46,1.227 13.4,1.227 L7.29,1.227 Z M13.4,15.814 L7.29,15.814 C4.675,15.814 2.549,13.688 2.549,11.074 L2.549,4.968 C2.549,2.354 4.675,0.227 7.29,0.227 L13.4,0.227 C16.01,0.227 18.14,2.354 18.14,4.968 L18.14,11.074 C18.14,13.688 16.01,15.814 13.4,15.814 Z" id="Fill-127"></path>
                </g>
            </g>
        </g>
    </g>
</svg>