<?xml version="1.0" encoding="UTF-8"?>
<svg width="20px" height="19px" viewBox="0 0 20 19" version="1.1" xmlns="http://www.w3.org/2000/svg" xmlns:xlink="http://www.w3.org/1999/xlink">
    <!-- Generator: Sketch 48.2 (47327) - http://www.bohemiancoding.com/sketch -->
    <title>Group 16</title>
    <desc>Created with Sketch.</desc>
    <defs></defs>
    <g id="Main-Projects" stroke="none" stroke-width="1" fill="none" fill-rule="evenodd" transform="translate(-880.000000, -344.000000)">
        <g id="Start" transform="translate(26.000000, 27.000000)" fill="#000105">
            <g id="C_Ctart_panel-2-Copy" transform="translate(1.000000, 0.000000)">
                <g id="Group-16" transform="translate(853.000000, 317.000000)">
                    <path d="M1,18 L19,18 L19,14 L1,14 L1,18 Z M0,19 L20,19 L20,13 L0,13 L0,19 Z" id="Fill-88"></path>
                    <path d="M7.21,3.957 C7.21,5.735 5.77,7.175 3.994,7.175 C2.217,7.175 0.776,5.735 0.776,3.957 C0.776,2.18 2.217,0.739 3.994,0.739 C5.77,0.739 7.21,2.18 7.21,3.957" id="Fill-118"></path>
                    <path d="M13.11,9.146 C13.11,10.923 11.67,12.364 9.89,12.364 C8.11,12.364 6.67,10.923 6.67,9.146 C6.67,7.369 8.11,5.928 9.89,5.928 C11.67,5.928 13.11,7.369 13.11,9.146" id="Fill-119"></path>
                </g>
            </g>
        </g>
    </g>
</svg>