<?xml version="1.0" encoding="UTF-8"?>
<svg width="21px" height="19px" viewBox="0 0 21 19" version="1.1" xmlns="http://www.w3.org/2000/svg" xmlns:xlink="http://www.w3.org/1999/xlink">
    <!-- Generator: Sketch 48.2 (47327) - http://www.bohemiancoding.com/sketch -->
    <title>Fill 87</title>
    <desc>Created with Sketch.</desc>
    <defs></defs>
    <g id="Main-Projects" stroke="none" stroke-width="1" fill="none" fill-rule="evenodd" transform="translate(-905.000000, -344.000000)">
        <g id="Start" transform="translate(26.000000, 27.000000)" fill="#000105">
            <g id="C_Ctart_panel-2-Copy" transform="translate(1.000000, 0.000000)">
                <path d="M889.76,335 L886.55,335 L888.62,330.94 L888.64,330.897 L892.36,323.767 L891.48,323.289 L890.62,324.923 L890.61,324.858 L887.87,330 L885.94,330 L889.28,323.685 L888.39,323.192 L884.81,330 L882.88,330 L886.21,323.685 L885.33,323.192 L881.75,330 L879.85,330 L886.07,318 L898,318 L898,330 L893.34,330 L896.51,323.996 L895.62,323.664 L889.76,335 Z M899,331 L899,317 L885.47,317 L878.2,331 L887.35,331 L884.89,336 L890.36,336 L892.81,331 L899,331 Z" id="Fill-87"></path>
            </g>
        </g>
    </g>
</svg>