<?xml version="1.0" encoding="UTF-8"?>
<svg width="10px" height="15px" viewBox="0 0 10 15" version="1.1" xmlns="http://www.w3.org/2000/svg" xmlns:xlink="http://www.w3.org/1999/xlink">
    <!-- Generator: Sketch 48.2 (47327) - http://www.bohemiancoding.com/sketch -->
    <title>Fill 123</title>
    <desc>Created with Sketch.</desc>
    <defs></defs>
    <g id="Main-Projects" stroke="none" stroke-width="1" fill="none" fill-rule="evenodd" transform="translate(-885.000000, -368.000000)">
        <g id="Start" transform="translate(26.000000, 27.000000)" fill="#000105">
            <g id="C_Ctart_panel-2-Copy" transform="translate(1.000000, 0.000000)">
                <path d="M862.89,343.547 L859.89,350.188 C859.43,351.211 859.52,352.385 860.13,353.328 C860.73,354.271 861.77,354.835 862.89,354.835 C864.01,354.835 865.05,354.271 865.66,353.328 C866.27,352.385 866.35,351.211 865.89,350.188 L862.89,343.547 Z M862.89,355.835 C861.43,355.835 860.08,355.101 859.28,353.871 C858.49,352.641 858.38,351.11 858.98,349.775 L862.89,341.117 L866.8,349.775 C867.41,351.11 867.29,352.641 866.5,353.871 C865.7,355.101 864.35,355.835 862.89,355.835 Z" id="Fill-123"></path>
            </g>
        </g>
    </g>
</svg>