<?xml version="1.0" encoding="UTF-8"?>
<svg width="17px" height="17px" viewBox="0 0 17 17" version="1.1" xmlns="http://www.w3.org/2000/svg" xmlns:xlink="http://www.w3.org/1999/xlink">
    <!-- Generator: Sketch 48.2 (47327) - http://www.bohemiancoding.com/sketch -->
    <title>Fill 128</title>
    <desc>Created with Sketch.</desc>
    <defs></defs>
    <g id="Main-Projects" stroke="none" stroke-width="1" fill="none" fill-rule="evenodd" transform="translate(-907.000000, -169.000000)">
        <g id="Start" transform="translate(26.000000, 27.000000)" fill="#000105">
            <g id="C_Ctart_panel-2-Copy" transform="translate(1.000000, 0.000000)">
                <path d="M888.4,143.583 C884.66,143.583 881.61,146.631 881.61,150.377 C881.61,154.124 884.66,157.171 888.4,157.171 C892.15,157.171 895.2,154.124 895.2,150.377 C895.2,146.631 892.15,143.583 888.4,143.583 Z M888.4,158.171 C884.11,158.171 880.61,154.675 880.61,150.377 C880.61,146.08 884.11,142.583 888.4,142.583 C892.7,142.583 896.2,146.08 896.2,150.377 C896.2,154.675 892.7,158.171 888.4,158.171 Z" id="Fill-128"></path>
            </g>
        </g>
    </g>
</svg>