<?xml version="1.0" encoding="UTF-8"?>
<svg width="23px" height="26px" viewBox="0 0 23 26" version="1.1" xmlns="http://www.w3.org/2000/svg" xmlns:xlink="http://www.w3.org/1999/xlink">
    <!-- Generator: Sketch 48.2 (47327) - http://www.bohemiancoding.com/sketch -->
    <title>Group 17</title>
    <desc>Created with Sketch.</desc>
    <defs></defs>
    <g id="Main-Projects" stroke="none" stroke-width="1" fill="none" fill-rule="evenodd" transform="translate(-879.000000, -388.000000)">
        <g id="Start" transform="translate(26.000000, 27.000000)" fill="#000105">
            <g id="C_Ctart_panel-2-Copy" transform="translate(1.000000, 0.000000)">
                <g id="Group-17" transform="translate(852.000000, 361.000000)">
                    <path d="M10.28,24.765 L12.25,24.765 L12.25,7.46 L10.28,7.46 L10.28,24.765 Z M9.28,25.765 L13.25,25.765 L13.25,6.46 L9.28,6.46 L9.28,25.765 Z" id="Fill-158"></path>
                    <polyline id="Fill-162" points="11.78 3.167 15.48 0.575 22.22 6.649 11.78 3.167"></polyline>
                    <polyline id="Fill-163" points="11.78 3.167 16.89 4.35 18.95 10.125 11.78 3.167"></polyline>
                    <polyline id="Fill-164" points="10.94 3.167 7.24 0.575 0.5 6.649 10.94 3.167"></polyline>
                    <polyline id="Fill-165" points="10.94 3.167 5.83 4.35 3.77 10.125 10.94 3.167"></polyline>
                    <polygon id="Fill-173" points="7.24 4.044 15.57 4.044 15.57 0.575 7.24 0.575"></polygon>
                </g>
            </g>
        </g>
    </g>
</svg>