<?xml version="1.0" encoding="UTF-8"?>
<svg width="19px" height="25px" viewBox="0 0 19 25" version="1.1" xmlns="http://www.w3.org/2000/svg" xmlns:xlink="http://www.w3.org/1999/xlink">
    <!-- Generator: Sketch 48.2 (47327) - http://www.bohemiancoding.com/sketch -->
    <title>Group 28</title>
    <desc>Created with Sketch.</desc>
    <defs></defs>
    <g id="Main-Projects" stroke="none" stroke-width="1" fill="none" fill-rule="evenodd" transform="translate(-906.000000, -389.000000)">
        <g id="Start" transform="translate(26.000000, 27.000000)" fill="#000105">
            <g id="C_Ctart_panel-2-Copy" transform="translate(1.000000, 0.000000)">
                <g id="Group-28" transform="translate(879.000000, 362.000000)">
                    <path d="M1.52,6.834 L6.6,11.909 L11.67,6.834 L6.6,1.759 L1.52,6.834 Z M6.6,13.323 L0.11,6.834 L6.6,0.345 L13.09,6.834 L6.6,13.323 Z" id="Fill-166"></path>
                    <path d="M6.86,6.834 L11.93,11.909 L17.01,6.834 L11.93,1.759 L6.86,6.834 Z M11.93,13.323 L5.44,6.834 L11.93,0.345 L18.42,6.834 L11.93,13.323 Z" id="Fill-167"></path>
                    <path d="M1.52,18.483 L6.6,23.558 L11.67,18.483 L6.6,13.408 L1.52,18.483 Z M6.6,24.972 L0.11,18.483 L6.6,11.994 L13.09,18.483 L6.6,24.972 Z" id="Fill-168"></path>
                    <path d="M6.86,18.483 L11.93,23.558 L17.01,18.483 L11.93,13.408 L6.86,18.483 Z M11.93,24.972 L5.44,18.483 L11.93,11.994 L18.42,18.483 L11.93,24.972 Z" id="Fill-169"></path>
                </g>
            </g>
        </g>
    </g>
</svg>