<?xml version="1.0" encoding="UTF-8"?>
<svg width="18px" height="19px" viewBox="0 0 18 19" version="1.1" xmlns="http://www.w3.org/2000/svg" xmlns:xlink="http://www.w3.org/1999/xlink">
    <!-- Generator: Sketch 48.2 (47327) - http://www.bohemiancoding.com/sketch -->
    <title>Group 29</title>
    <desc>Created with Sketch.</desc>
    <defs></defs>
    <g id="Main-Projects" stroke="none" stroke-width="1" fill="none" fill-rule="evenodd" transform="translate(-906.000000, -420.000000)" opacity="0.200000003">
        <g id="Start" transform="translate(26.000000, 27.000000)" fill="#000105">
            <g id="C_Ctart_panel-2-Copy" transform="translate(1.000000, 0.000000)">
                <g id="Group-29" transform="translate(879.000000, 393.000000)">
                    <path d="M14.68,6.973 C12.91,6.973 11.47,5.532 11.47,3.755 C11.47,1.977 12.91,0.536 14.68,0.536 C16.46,0.536 17.9,1.977 17.9,3.755 C17.9,5.532 16.46,6.973 14.68,6.973" id="Fill-159"></path>
                    <path d="M9.5,12.869 C7.72,12.869 6.28,11.429 6.28,9.651 C6.28,7.874 7.72,6.433 9.5,6.433 C11.27,6.433 12.71,7.874 12.71,9.651 C12.71,11.429 11.27,12.869 9.5,12.869" id="Fill-160"></path>
                    <path d="M3.77,18.592 C2,18.592 0.55,17.152 0.55,15.374 C0.55,13.597 2,12.156 3.77,12.156 C5.55,12.156 6.99,13.597 6.99,15.374 C6.99,17.152 5.55,18.592 3.77,18.592" id="Fill-161"></path>
                </g>
            </g>
        </g>
    </g>
</svg>