<?xml version="1.0" encoding="UTF-8"?>
<svg width="18px" height="18px" viewBox="0 0 18 18" version="1.1" xmlns="http://www.w3.org/2000/svg" xmlns:xlink="http://www.w3.org/1999/xlink">
    <!-- Generator: Sketch 48.2 (47327) - http://www.bohemiancoding.com/sketch -->
    <title>Group 10</title>
    <desc>Created with Sketch.</desc>
    <defs></defs>
    <g id="Main-Projects" stroke="none" stroke-width="1" fill="none" fill-rule="evenodd" transform="translate(-881.000000, -190.000000)">
        <g id="Start" transform="translate(26.000000, 27.000000)" fill="#000105">
            <g id="C_Ctart_panel-2-Copy" transform="translate(1.000000, 0.000000)">
                <g id="Group-10" transform="translate(854.000000, 163.000000)">
                    <polyline id="Fill-170" points="8.45 17.561 0.34 17.561 7.17 10.73 1.536 10.73 1.536 9.73 9.58 9.73 2.754 16.561 8.45 16.561 8.45 17.561"></polyline>
                    <polyline id="Fill-171" points="17.1 11.889 10.54 11.889 15.15 7.286 11.07 7.286 11.07 6.286 17.56 6.286 12.96 10.889 17.1 10.889 17.1 11.889"></polyline>
                    <polyline id="Fill-172" points="11.07 5.403 5.28 5.403 8.75 1.933 5.54 1.933 5.54 0.933 11.17 0.933 7.7 4.403 11.07 4.403 11.07 5.403"></polyline>
                </g>
            </g>
        </g>
    </g>
</svg>