<?xml version="1.0" encoding="UTF-8"?>
<svg width="17px" height="17px" viewBox="0 0 17 17" version="1.1" xmlns="http://www.w3.org/2000/svg" xmlns:xlink="http://www.w3.org/1999/xlink">
    <!-- Generator: Sketch 48.2 (47327) - http://www.bohemiancoding.com/sketch -->
    <title>Group 19</title>
    <desc>Created with Sketch.</desc>
    <defs></defs>
    <g id="Main-Projects" stroke="none" stroke-width="1" fill="none" fill-rule="evenodd" transform="translate(-905.000000, -190.000000)">
        <g id="Start" transform="translate(26.000000, 27.000000)">
            <g id="C_Ctart_panel-2-Copy" transform="translate(1.000000, 0.000000)">
                <g id="Group-19" transform="translate(878.000000, 163.000000)">
                    <polygon id="Fill-102" fill="#000105" points="3.1 5.099 5.24 5.099 5.24 2.966 3.1 2.966"></polygon>
                    <polygon id="Fill-104" fill="#000105" points="0.98 7.286 3.11 7.286 3.11 5.154 0.98 5.154"></polygon>
                    <polygon id="Fill-106" fill="#000105" points="0.98 2.975 3.11 2.975 3.11 0.843 0.98 0.843"></polygon>
                    <polygon id="Fill-108" fill="#000105" points="5.23 2.975 7.36 2.975 7.36 0.843 5.23 0.843"></polygon>
                    <polyline id="Fill-138" fill="#000105" points="15.86 16.461 5.71 6.309 6.41 5.602 16.57 15.754 15.86 16.461"></polyline>
                    <g id="Group-20" transform="translate(1.000000, 1.000000)" fill="#161616">
                        <polygon id="Fill-101" points="2.6 3.598 3.74 3.598 3.74 2.466 2.6 2.466"></polygon>
                        <polygon id="Fill-103" points="0.48 5.786 1.61 5.786 1.61 4.654 0.48 4.654"></polygon>
                        <polygon id="Fill-105" points="0.48 1.475 1.61 1.475 1.61 0.343 0.48 0.343"></polygon>
                        <polygon id="Fill-107" points="4.73 1.475 5.86 1.475 5.86 0.343 4.73 0.343"></polygon>
                    </g>
                </g>
            </g>
        </g>
    </g>
</svg>