<?xml version="1.0" encoding="UTF-8"?>
<svg width="19px" height="17px" viewBox="0 0 19 17" version="1.1" xmlns="http://www.w3.org/2000/svg" xmlns:xlink="http://www.w3.org/1999/xlink">
    <!-- Generator: Sketch 48.2 (47327) - http://www.bohemiancoding.com/sketch -->
    <title>Group 11</title>
    <desc>Created with Sketch.</desc>
    <defs></defs>
    <g id="Main-Projects" stroke="none" stroke-width="1" fill="none" fill-rule="evenodd" transform="translate(-880.000000, -213.000000)">
        <g id="Start" transform="translate(26.000000, 27.000000)" fill="#000105">
            <g id="C_Ctart_panel-2-Copy" transform="translate(1.000000, 0.000000)">
                <g id="Group-11" transform="translate(853.000000, 186.000000)">
                    <path d="M6.29,15.454 L17.37,15.454 L17.37,1.104 L6.49,1.104 L6.49,10.104 L3.964,4.674 L1.382,5.928 L6.29,15.454 Z M18.37,16.454 L5.69,16.454 L0.024,5.476 L4.442,3.33 L5.49,5.583 L5.49,0.104 L18.37,0.104 L18.37,16.454 Z" id="Fill-141"></path>
                    <polygon id="Fill-142" points="8.29 7.417 9.29 7.417 9.29 0.602 8.29 0.602"></polygon>
                    <polygon id="Fill-143" points="11.33 7.417 12.33 7.417 12.33 0.602 11.33 0.602"></polygon>
                    <polygon id="Fill-144" points="14.37 7.417 15.37 7.417 15.37 0.602 14.37 0.602"></polygon>
                </g>
            </g>
        </g>
    </g>
</svg>