<?xml version="1.0" encoding="UTF-8"?>
<svg width="16px" height="16px" viewBox="0 0 16 16" version="1.1" xmlns="http://www.w3.org/2000/svg" xmlns:xlink="http://www.w3.org/1999/xlink">
    <!-- Generator: Sketch 48.2 (47327) - http://www.bohemiancoding.com/sketch -->
    <title>Group 21</title>
    <desc>Created with Sketch.</desc>
    <defs></defs>
    <g id="Main-Projects" stroke="none" stroke-width="1" fill="none" fill-rule="evenodd" transform="translate(-907.000000, -213.000000)">
        <g id="Start" transform="translate(26.000000, 27.000000)" fill="#000105">
            <g id="C_Ctart_panel-2-Copy" transform="translate(1.000000, 0.000000)">
                <g id="Group-21" transform="translate(880.000000, 186.000000)">
                    <path d="M5.36,1.102 C3.29,1.102 1.61,2.784 1.61,4.852 C1.61,6.92 3.29,8.602 5.36,8.602 C7.43,8.602 9.11,6.92 9.11,4.852 C9.11,2.784 7.43,1.102 5.36,1.102 Z M5.36,9.602 C2.74,9.602 0.61,7.471 0.61,4.852 C0.61,2.233 2.74,0.102 5.36,0.102 C7.98,0.102 10.11,2.233 10.11,4.852 C10.11,7.471 7.98,9.602 5.36,9.602 Z" id="Fill-129"></path>
                    <polyline id="Fill-140" points="14.92 15.123 8.01 8.211 8.72 7.504 15.63 14.416 14.92 15.123"></polyline>
                </g>
            </g>
        </g>
    </g>
</svg>