<?xml version="1.0" encoding="UTF-8"?>
<svg width="19px" height="19px" viewBox="0 0 19 19" version="1.1" xmlns="http://www.w3.org/2000/svg" xmlns:xlink="http://www.w3.org/1999/xlink">
    <!-- Generator: Sketch 48.2 (47327) - http://www.bohemiancoding.com/sketch -->
    <title>Group 12</title>
    <desc>Created with Sketch.</desc>
    <defs></defs>
    <g id="Main-Projects" stroke="none" stroke-width="1" fill="none" fill-rule="evenodd" transform="translate(-880.000000, -234.000000)">
        <g id="Start" transform="translate(26.000000, 27.000000)" fill="#000105">
            <g id="C_Ctart_panel-2-Copy" transform="translate(1.000000, 0.000000)">
                <g id="Group-12" transform="translate(853.000000, 207.000000)">
                    <path d="M5.35,13.664 L12.33,13.664 L12.33,6.678 L5.35,6.678 L5.35,13.664 Z M3.346,15.664 L14.33,15.664 L14.33,4.678 L3.346,4.678 L3.346,15.664 Z" id="Fill-145"></path>
                    <polyline id="Fill-146" points="14.33 18.202 12.33 18.202 12.33 13.664 16.87 13.664 16.87 15.664 14.33 15.664 14.33 18.202"></polyline>
                    <polyline id="Fill-147" points="5.35 6.678 0.808 6.678 0.808 4.678 3.346 4.678 3.346 2.14 5.35 2.14 5.35 6.678"></polyline>
                    <polyline id="Fill-139" points="5.13 14.583 4.427 13.875 18.1 0.203 18.81 0.91 5.13 14.583"></polyline>
                </g>
            </g>
        </g>
    </g>
</svg>