<?xml version="1.0" encoding="UTF-8"?>
<svg width="16px" height="16px" viewBox="0 0 16 16" version="1.1" xmlns="http://www.w3.org/2000/svg" xmlns:xlink="http://www.w3.org/1999/xlink">
    <!-- Generator: Sketch 48.2 (47327) - http://www.bohemiancoding.com/sketch -->
    <title>Group 22</title>
    <desc>Created with Sketch.</desc>
    <defs></defs>
    <g id="Main-Projects" stroke="none" stroke-width="1" fill="none" fill-rule="evenodd" transform="translate(-907.000000, -235.000000)">
        <g id="Start" transform="translate(26.000000, 27.000000)" fill="#000105">
            <g id="C_Ctart_panel-2-Copy" transform="translate(1.000000, 0.000000)">
                <g id="Group-22" transform="translate(880.000000, 208.000000)">
                    <polygon id="Fill-148" points="1.11 1.729 14.78 1.729 14.78 0.729 1.11 0.729"></polygon>
                    <path d="M7.45,14.313 L8.42,14.313 L8.42,1.729 L7.45,1.729 L7.45,14.313 Z M6.45,15.313 L9.42,15.313 L9.42,0.729 L6.45,0.729 L6.45,15.313 Z" id="Fill-149"></path>
                    <path d="M1.61,1.729 L1.61,2.626 L2.51,1.729 L1.61,1.729 Z M0.61,5.041 L0.61,0.729 L4.92,0.729 L0.61,5.041 Z" id="Fill-150"></path>
                    <path d="M13.39,1.729 L14.28,2.626 L14.28,1.729 L13.39,1.729 Z M15.28,5.041 L10.97,0.729 L15.28,0.729 L15.28,5.041 Z" id="Fill-151"></path>
                </g>
            </g>
        </g>
    </g>
</svg>